<svg id="Layer_1" data-name="Layer 1" xmlns="http://www.w3.org/2000/svg" viewBox="0 0 600 600"><defs><style>.cls-3{fill:#231f20}.cls-2{opacity:.04}</style></defs><path d="M214.94 328.51a1.85 1.85 0 0 1-1.2-.12c-.1-3.37-3.48-2.72-5.19-3.91-3.28-2.27-7-4.46-10.63-3-1.19-1.21-2-2.85-3.15-3.07-4.79-.93-9.67-1.45-14-2-.18-1.37-.08-3.35-.51-3.47-4-1.11-7-6.49-12.22-2.6-1.69-2.72-3.43-2.49-5.85-.5-1.43 1.17-3.77 1.24-5.71 1.77-1.17.32-2.66.23-3.48.93-2.68 2.28-7 2.44-8.22 6.73-.21.78-2.17 1.57-3.29 1.52-4.28-.17-6.32 2.47-8.43 5.25a13.74 13.74 0 0 0-4.73 2.41c-.62.46-1.13 1.86-1.44 1.78-4.74-1.14-4.11 2.51-4.4 4.89l-4.46 2 1.13.66a46.4 46.4 0 0 0-1.62 6.68c-.3 2.92-.88 6.16.06 8.76 1.3 3.61 3.52 6.79.27 10.95l2.7-.46c-4.44 2.3-2.32 5.42-1.54 8.52 1 4.08 1.35 8.36 2.59 12.36.72 2.35 1.75 5.17 5.69 4.26 2.2-.51 2.67 1.05 1.91 3.29-.46 1.37-.38 3.8.5 4.59 5.32 4.81 12.32 5.4 19 6.22 2.17.27 4.66-2 7.07-3.15 2.55 5.42 5-2.66 7.55.12-.09-1.24-.14-2-.2-2.84a11.38 11.38 0 0 0 12.2-9.72c.13-.91.64-2.37 1.24-2.52 5.07-1.25 7-5.62 10.12-9.05 3.83-4.23 5.2-9 6.76-13.73a29.4 29.4 0 0 0 5.23-4.43c.81-.79 1.5-1.94 2.47-2.29 4-1.42 8-2.59 12.67-4l.11-1.67c2.6.2 5.5 1.34 7.14.37 3-1.78 5.91-3.8 7.4-7.8 1.72-4.6.77-10.09-4.15-11.2-3.17-.77-5.58-4.43-9.39-2.53zm249.7 146.39c1.05-.94 2.58-1.5 3.31-2.62 2-3.1 3.33-6.49 7.77-7.39 3.49-.72 6.82-2.48 10-4.16 1.51-.8 2.34-3.08 3.86-3.65 2.84-1.05 3.12-2.51 1.69-4.69l3-2.2-2.54-3.08c1.15-1.52 2.46-2.47 2.54-3.51.32-4.24.24-8.51.37-12.77.2-6.6 1.05-13.26.4-19.78-.26-2.71-.7-4.61 1.27-6.63 1.5-1.55.77-6.16-1-7.3-3.12-2-5.71-5.22-10.14-4-.33.09-.92-.8-1.41-1.2-.89-.72-1.81-1.41-2.71-2.13-3.72-3-8.72-2.4-12.57-4.14-4.83-2.2-8.54 0-12.64.6-2.64.37-5.79 1.59-4.27 4.63l-6.74 4.76 2.07 2.54a9.62 9.62 0 0 0-5.74 9.9l-4.94 5.33c-7.67 1-7.67 1-6.14 4.79l-3.67 1c.44 2.42 1.42 4.43.82 5.22-1.26 1.63-3.59 2.38-5.05 3.9a27.76 27.76 0 0 0-4.18 5.88c-.74 1.33-.72 3-1.32 4.48-2.12 5.08-.51 12.71 3.35 15.69 1.72 1.32 3.33 2.78 5 4.14 1.49 1.21 3 2.37 4.53 3.54-.09.9-.81 2.59-.25 3.49a86.86 86.86 0 0 0 7.29 10.25c3.63 4.32 7.72 8 14.14 5.65a4.94 4.94 0 0 1 2.54.16c3.18.72 5.48-.6 7.49-2.92a41.63 41.63 0 0 1 3.87-3.78zm-331.1 85.84c1.42-.15 2.94 1.52 4.53 2 1.28.39 3.17.84 4 .21 3.52-2.64 7.74-4.59 9.62-9.06a10.43 10.43 0 0 1 2.71-3.5c3.82-3.43 3.22-7.64-1-9.45v-9.25c-2.78-2-3.26-5.22-1.53-9.85a5.93 5.93 0 0 0-.13-4.52c-2.58-4.29-5.56-8.35-8.33-12.42l2-2.79c-2.37-1.76-5.17-2.88-6.46-4.95-4.56-7.37-12.34-6.11-19-7.41-4.56-.88-9.34.68-14.13.59-7.07-.14-14.13 1-21.18-.94a7.36 7.36 0 0 0-5.64 1.06c-2.15 1.6-3.21.93-4.56-.71-2.66-3.2-4.35-3-6.48.78-1.47-1.69-3.25-3-4.57-.19-2.51 5.39-8.27 9-8.46 15.67 0 .56-1.33 1.09-2.06 1.6s-1.86.76-2 1.33c-.95 3.94-2.76 8.06.56 11.73a25.54 25.54 0 0 0 4.64 3.66c1.56 1.07 3.26 1.94 5.41 3.2 0 .07-.42 1.76.11 2.16a125.73 125.73 0 0 0 11.93 8.1c1.13.66 4-.65 4.45 0 2.88 4.64 6.88 4 11.25 3.3 2.17-.34 4.49.29 6.74.48l-.6.93a24.94 24.94 0 0 0 4.41 2.57c5.09 1.7 10.27 3.12 15.38 4.76 1.75.56 3.72 1.09 5 2.26 1.76 1.57 2.62 4.57 4.55 5.41 1.66.74 4.27-.68 6.55-1.16-.79 2.12-2.92 4.92 2.29 4.4zM59.4 94.91c-1.15 0-2.18 1.57-3.4 2.14-1 .46-2.46 1-3.2.64C49.66 96 46 94.9 44 91.52A8.44 8.44 0 0 0 41.41 89c-3.47-2.31-3.48-5.77-.28-7.72-.36-2.5-.7-4.82-1.09-7.44 2-1.93 2-4.58.08-8.1a4.82 4.82 0 0 1-.43-3.65c1.58-3.76 3.49-7.37 5.25-11-.72-.74-1.31-1.34-1.95-2 1.7-1.69 3.83-2.92 4.62-4.73C50.42 38 56.82 38.05 62 36.23c3.57-1.25 7.6-.55 11.43-1.19 5.68-.94 11.49-.83 16.93-3.24A6 6 0 0 1 95 32c1.92 1 2.69.37 3.58-1.1 1.77-2.89 3.15-2.92 5.31-.14 1-1.52 2.26-2.81 3.65-.68 2.65 4 7.7 6.27 8.64 11.61.08.44 1.2.72 1.85 1s1.58.4 1.75.84c1.24 3.06 3.17 6.16.93 9.5a20.9 20.9 0 0 1-3.3 3.49c-1.13 1-2.4 1.94-4 3.2 0 .06.55 1.37.16 1.76a104.22 104.22 0 0 1-8.57 7.95c-.83.66-3.34-.05-3.58.51-1.77 4.07-5.07 4-8.66 4-1.78 0-3.57.76-5.36 1.17l.58.68a19.62 19.62 0 0 1-3.24 2.58c-3.89 2-7.89 3.72-11.81 5.64a11.11 11.11 0 0 0-3.78 2.4c-1.24 1.47-1.58 4-3 4.89-1.25.78-3.51 0-5.4-.17.87 1.59 2.91 3.59-1.35 3.78zm316.31 307.63c3.18.59 6.58.52 9.55 1.6a20 20 0 0 1 7 4.79c3.92 4 7.43 8.36 11.13 12.55s1.88 11.64-1.72 13.35c-.65 3.24-1.09 5.51-1.58 7.77-.13.58-.75 1.54-.65 1.62 4.28 2.79-.18 3.79-1.31 5.25 2.25 3.29 1.86 3.23.92 8.58a11.86 11.86 0 0 0 1.68 8c1.8 2.7 4.9 4.6 7.69 7.07l-3 1.19 5.58 6.79-4 1.53c1.05 2.71-.91 6.4-4.11 9.61-4.12 4.13-10.3 7.47-14.79 6.9-.24.55-.41 1.24-.62 1.85a2.31 2.31 0 0 1-.91 1.34c-2.94 1.52-6.15 2.53-9.19 3.89a6.05 6.05 0 0 0-2.92 2.21c-1.18 2.39-1.76 5.08-5.54 4.61-.56-.07-1.23.87-1.88 1.29-3.49 2.25-6.94 4.58-10.55 6.64-.5.29-1.8-.81-2.78-1.15a4.05 4.05 0 0 0-1.77-.13c-2.79.39-5.56.84-8.34 1.27l-.27-1c-.83.86-1.67 1.71-2.13 2.18-11-5.26-19.75-12.25-24.52-21.16-2.12-.95-4-1.21-4.31-2-1.11-2.76-1.25-5.91-2.6-8.52-.74-1.42-.86-4.28-4.91-3.35-3.36.76-5-6.46-2.21-10.43-2.17-2.18-3.41-4.26.26-6.44.77-.46.69-2.49.69-3.8 0-.8-1.11-1.86-.85-2.37q4.29-8.18 8.9-16.18a26.43 26.43 0 0 1 2.82-3.66c-.26-3-1.41-5.77-.44-7 4.38-5.41 8.65-11.3 14.29-15.26 7.77-5.43 16.74-9.28 25.2-13.82 2-1.08 3.91-2.73 6.06-3.13a23 23 0 0 0 9.68-4.4c.3-.22 1.21.29 1.83.48a43 43 0 0 0 4.62 1.44zm-95.96 69.14c-1.88-1.82-3.69-3.72-5.64-5.69a21.75 21.75 0 0 0-1.27-3.36c-2.68-4.86-7.54-7.71-12.48-9.27-4.12-1.31-9.09-.49-13.65-.12-1.23.09-2.18 2.66-3.49 2.91-3.81.75-5.64 2.59-5 6.4-5.45-1.54-7.44 0-6.55 5.25a53.76 53.76 0 0 0-30.23 12.72c.23.58.63 1.56.93 2.29-4 .63-7.72 1.14-11.43 1.92-.75.16-2 1.67-1.78 2 1.34 2.77-1.35 2.84-2.47 4.2-3.14 3.8-6.83 7.86-7.91 12.32-.83 3.45 1.68 7.78 3.23 11.51 1.09 2.65 2.5 6.28 4.74 7.1 3.13 1.13 3.13 2.59 3.25 4.94a13.82 13.82 0 0 0 1.23 4.91c1.47 3.23 3.47 6.25 4.76 9.54 1.6 4.05 3.94 6.69 8.77 7.22 1.64.18 2.94 2.21 4.63 2.81a25.62 25.62 0 0 0 6.7 1.27 72.6 72.6 0 0 0 7.37-.22c.3-2.09 2.31-2.92 5.5-2.64 3.77.33 6.84-2.07 6.73-4.6a26.94 26.94 0 0 1 .63-4.62c-4.4-2.65 2.57-5.48.48-8.16 4.93-2.86 9.52-4.35 14 0a3.37 3.37 0 0 0 2.53.31c5.84-1.29 11.67-2.62 17.46-4.1a5.35 5.35 0 0 0 2.79-2c1.55-2.18 2.56-4.74 4.28-6.76s4.23-3.42 6-5.41a33.29 33.29 0 0 0 4.73-6.74c.88-1.67.95-3.72 1.46-5.58 1.16-4.28 2.63-8.5 3.49-12.84.79-4-1.78-6.68-4.88-9.14a122.6 122.6 0 0 1-8.91-8.37zM144.12 150.41c0-3.59 4-7.78 6-11.76 1.37-2.66 2.7-5.49-1.12-7 1.23-1 2.35-1.87 3.35-2.85 1.8-1.79 4.83-3.67 5.08-5.52 1.16-8.69 10-12 12.28-19.67 4.9-.6 3-3.73 2.79-5l10.07-13.17c-1.36-2.15-2.29-5.23-4.32-6.47a14.76 14.76 0 0 1-6-6.18c-1.07-2.13-4.07-3.17-4.58-5.37-1.52-6.53-7-9.55-10.94-12.44-5.43-4-13.33-.25-20.16 4-5.31 3.29-7.33 10.88-13.73 12.44-.24.06-.38.85-.64 1.25-1.38 2-2.52 5.19-4.21 5.89-5.91 2.45-8.64 8.33-12.67 12.75-2.54 2.77-4.7 6-7.38 9.41l1.5 2.8c-.46.55-.72 1-.89 1-6.06-.35-10.17 4.69-14.77 8.25-.91.7-2 2.32-1.93 3.2.23 2 1.15 3.91 2 6.36-5.09-1.21-7.38 2.1-9.41 6.11l3.31 7.66-5.61 4.9c.89 2.11 1.6 5.22 3.26 7.44 3.53 4.71 8.67 8.24 11.1 13.58 2.83 6.21 7 9.38 13.4 10.74-1.44 1.4-2.47 2.39-4 3.87a36.45 36.45 0 0 0 5.14 2.19c2 .51 4.46 0 6.24.93 5.4 2.7 10.69 4.4 16-1 1.11 1.34 1.94 3.2 2.67 3.05 1.74-.36 4-1.25 5-2.7 1.47-2.07 1.73-5 3-7.29 3.97-6.81 10.22-12.25 10.17-21.4zM519 227.66c-1.7-3.06-4.39-5.32 1.47-6.35.44-.08.53-1.27.44-2-.41-3.23-9.27-11.74-13.58-13 1.69-4.4-3.47-6.39-7-9a87 87 0 0 1-8.57-6.71c-4.12-4-7.76-8.21-11.78-12.24-.49-.48-2.16-.6-3.17-.54-2 .12-3.93.47-6.31.78.24-1.51.45-2.8.5-3.06-4.93-1.16-9.31-2.44-13.75-3.17l-.85-.16v-.1c-4-.94-7.52-2-11.13-2.55-3.12-.43-7.17-2.49-8.19 2.54-2.81 2.38-6.68-4.51-8.92.13-3.25-.63-6.56-1.21-9.38-3.27-.94-.68-2.87-.65-5-.43l-.06-.06c-1.19-1.12-4.65 0-7.38.67-1.95 0-4-.12-5 .56-2.2.31-3.73 1.34-2 5.64.07.18-.18.57-.37.79-.8.92-1.62 1.83-2.43 2.75-2.74 2.28-5.46 4.57-7.9 7-1.06 1.06-2 2.44-1.35 3.89-1.11 1.64-1.84 3.73.07 5.55a3.26 3.26 0 0 0 .13 2c-2.34 2.25-2 4.64-.53 7.3.72 1.35 1.65 3.07 1.38 4.39-1 5-3.47 10.24 3.48 13.1.5 5.82 6.81 5.17 9.57 8.54 1.45 1.76 3.49 3 5.17 4.61 2 1.91 3.89 4 6 5.86a43 43 0 0 0 4.44 3.18c1.75 2.23 3.87 3.74 5.38 5.72 1.86 2.43 3.15 5.28 4.8 7.88 1.27 2 2.84 3.83 4.05 5.86 1.05 1.77 1.79 3.73 2.74 5.76-.11.92-.74 2.55-.39 3.93.66 2.68 2.37 4.83 5.54 4 5.46-1.49 10.88-3.15 16.23-5a38.15 38.15 0 0 0 5.61-2.71c1-.14 1.94-.3 2.9-.45 3.82 3.78 8.07-1.69 13-1.55v-.75l.57-.11c3-.61 5.76-1.8 9.28-2.94 5.24 5 10.19-.24 16.53.29-.38-2.6-.7-4.84-1-7.08a57.33 57.33 0 0 0 6.61-14.56c.27-.87-1.41-2.27-2.2-3.45.42-.06 1.7 0 1.77-.3.75-3.06 4.22-3.6 7.16-5 2.19-1.07 4.33-4.49 3.42-6.18zM132.12 421.11c-.65 1.84-2.43 3.28-3.74 5-1.37 2.81-2.81 5.77-4.35 9-3.22-.69-4.06.5-2.55 3.6.4.82.64 2.37.18 2.85-2.29 2.37-2.46 5.11-2.94 8.23-1.2 7.77-1.83 15.28 2.94 22 2 2.78 2.61 6.85 6.67 7.92 2.91.77 5.8 1.58 8.73 2.29 1.9.46 3.83.83 5.77 1.17 8.35 1.46 15.23 8.81 25.13 5.5l1.06-4.95 1.71 2.33c1.28-2.84 2.35-5.51 3.68-8a7.77 7.77 0 0 1 2.52-2.41c1.59-1.09 4.09-2.09 2-4.32s-1-3.06.74-4.17c2.53-1.6 3.81-3.42 1.2-6.05-.13-.13 0-.52 0-.9l2.54-.54c-.39-2.45-.75-4.67-1.1-6.88-.59-3.77-1.06-7.23-5.13-9.58-1.72-1-4.57-2.72-5.47-2.85-4.25-.63-6.19-3.74-9-6-5.09-4.16-10.25-8.27-15.6-12.09a25.33 25.33 0 0 0-8.48-4.17c-2.39-.72-5.27-.46-6.51 3.02zM300.24 78.12c1.25.66 2.3 1.9 3.6 2.2 3.61.84 7.24.9 9.62 4.76 1.87 3 4.67 5.55 7.35 8 1.26 1.15 3.69 1.13 4.75 2.37 2 2.3 3.44 2.07 5 0l3.11 2.1 2-3.44c1.83.55 3.16 1.46 4.17 1.17 4.09-1.15 8.08-2.69 12.12-4 6.27-2.08 12.81-3.58 18.71-6.42 2.45-1.19 4.08-2.25 6.66-1.1 2 .88 6.05-1.39 6.5-3.48.77-3.6 2.94-7.16.25-10.89-.2-.28.43-1.13.63-1.73.37-1.09.7-2.19 1.07-3.28 1.54-4.53-.74-9-.43-13.23.4-5.29-3-8-4.91-11.66-1.26-2.36-3.48-4.9-5.82-2.42l-6.79-4.69c-.56 1-1.13 1.91-1.67 2.82a9.6 9.6 0 0 0-11.26-2l-6.71-2.81c-3.62-6.85-3.62-6.85-6.61-4.12l-2.2-3.1c-2.12 1.24-3.67 2.86-4.62 2.56-2-.62-3.47-2.55-5.4-3.4a27.71 27.71 0 0 0-7-1.9c-1.5-.24-3.11.37-4.66.3-5.5-.24-12.11 3.89-13.57 8.54-.65 2.07-1.47 4.08-2.17 6.13-.63 1.82-1.19 3.66-1.77 5.48-.87.22-2.71.13-3.36 1a87.34 87.34 0 0 0-7.12 10.37c-2.81 4.9-4.83 10-.44 15.22a5 5 0 0 1 .72 2.45c.42 3.22 2.45 4.93 5.32 6a40.78 40.78 0 0 1 4.93 2.2zM111.54 0c-.16-.36-.33-.73-.49-1.1L119-5.43c-1.29-.93-2.66-1.94-4-3a11.76 11.76 0 0 0 1.34.07c1.54 0 1.47-1 1.1-5.9l-2.75-.45-1.46-.25c2-1.87 6.31-3.2.68-5.06-.49-.16-.42-2-.61-3.07l-3.57.45c-1.23-3.41-2.24-6.19-3.4-9.42l-3.49-.35c-.43-4.15-4.17-5.29-6.38-7.78-4.16-4.71-5.58 3.52-9 1.35-.17-1.81.1-4.3-3.23-2.85-.54.24-1.75.13-2-.23-2.82-4.65-7.63-4.22-12-5.09C64-55.45 54.72-51.11 47-52.43c-1.24 1.07-2.23 2.4-3.56 3-2.54 1.15-5.32 1.77-7.91 2.84-1.05.43-2.61 1.41-2.66 2.23-.3 4.59-3.69 5.8-7.31 6.8l1.5 2.33c-3.64 1.68-7.74-.19-10.47 4.53-2.48 4.29-2.77 7.26 0 10.2l-2.74 3.06-.83.92 1.88.8 2 .85-3 2.74 3.54 2.65C14.88-4.12 16 1.22 20 4.54c.3 2.22.66 4.57 2 6.12s3.66 2.47 5.23 3.46l-2.23.54-.27 1 9.14 4.88c.62-2.14 1-3.5 1.45-5C41 20.22 49.42 20.4 52.35 28l15-4.86c0-.36.09-.72.13-1.09l-4-2C66 15.58 72.37 22.38 74.17 16c5 0 5 0 6.7-5.26 4.63 1.6 5.06 1.34 9.19-3.22.74-.81 2.82-1.42 3.64-1C96.88 8.26 104 7.54 106.35 5a8.45 8.45 0 0 1 2.88-1.53c1.65-.75 3.32-1.43 5-2.14l-.35-.84zm65.31 57.62l.12 1 5.41.55c.13 1 .25 1.91.32 2.47l7.3 1.85c2.57-1.08 4.93-2.89 5.88-2.32 2.75 1.63 4.16.38 5.92-1.25a6.15 6.15 0 0 1 3.14-1.8c2.92-.27 5.21-.75 3.52-5.28 6.08 5.36 10.3 3.2 14.19-1.76 2.56-3.28 5-7.07 8.34-9.21 3.57-2.25 3.78-4.7 2.68-8.72 5 3.17 5.56-1.2 7-2.74L222.51-2.28l2-.49A63.92 63.92 0 0 1 226-9.64c1.56-4.63.41-8.64-3.75-11.18C218.66-23 215-25.09 211.18-27a64.15 64.15 0 0 0-7-2.87c-1.19-.44-2.67-.36-3.65-1-5.12-3.61-10.15-7.34-15.15-11.11-5.46-4.11-11.9-2.55-17-.85-4.68 1.56-8.16 6.76-7.75 12.92a3.35 3.35 0 0 1-.69 2.28c-2.85 3-5.8 5.86-8.68 8.74l3.44 4.12c-5.65-.06-3.49 3.8-3.86 6.64-5.24 1.28-7.36 5.56-6.07 10.78.55 2.21 1 5.82-.15 6.81-3.85 3.26-.4 4.18.88 5.47-1 .91-2.38 1.65-2.55 2.61s1.05 2 1.31 2.4c-.26 3.67-1.32 7.32-.42 10.4.54 1.84 4.16 2.77 5.73 3.71-.41 1-1.84 2.81-1.4 3.77.66 1.44 2.56 2.41 4.09 3.32 2 1.21 5.05 1.62 6.13 3.34 2.48 4 5.52 5.41 9.89 4.25-.47 4 2.49 5.8 5 6.65 2.93 1 6.36.54 9.58.71v.68zM287.9 24c1.05-.94 2.58-1.51 3.31-2.63 2-3.09 3.33-6.48 7.77-7.39 3.49-.71 6.82-2.48 10-4.16 1.51-.79 2.34-3.08 3.86-3.65 2.84-1 3.12-2.51 1.69-4.69l3.05-2.2-2.54-3.07c1.15-1.53 2.46-2.48 2.54-3.52.32-4.24.24-8.51.37-12.77.2-6.6 1-13.26.4-19.77-.26-2.72-.7-4.61 1.27-6.64 1.5-1.54.77-6.16-1-7.3-3.12-2-5.71-5.22-10.14-4-.33.09-.92-.79-1.41-1.19-.89-.73-1.81-1.42-2.71-2.14-3.72-3-8.72-2.39-12.57-4.14-4.83-2.19-8.54 0-12.64.6-2.64.37-5.79 1.59-4.27 4.64l-6.74 4.76c.71.86 1.41 1.72 2.07 2.54a9.62 9.62 0 0 0-5.74 9.89l-4.94 5.33c-7.67 1-7.67 1-6.14 4.79l-3.67 1c.44 2.42 1.42 4.44.82 5.23-1.26 1.62-3.59 2.37-5.05 3.89a27.82 27.82 0 0 0-4.18 5.89c-.73 1.32-.72 3-1.32 4.47-2.12 5.08-.51 12.72 3.35 15.69 1.72 1.32 3.33 2.78 5 4.15 1.49 1.2 3 2.36 4.53 3.54-.09.89-.81 2.58-.25 3.49a86.74 86.74 0 0 0 7.29 10.24c3.63 4.32 7.72 8 14.14 5.65a4.84 4.84 0 0 1 2.54.17c3.18.71 5.48-.61 7.49-2.93A41.52 41.52 0 0 1 287.9 24zm130.57-66.42l-24.63-13.83a12.3 12.3 0 0 0-.47-2.63c-1-3.1-2.25-6.14-3.32-9.23-2-5.83-6.18-7.64-12-5.28-2.09.85-4.35 2.14-6.4 2-2.93-.28-8.25 1.74-9.65 4.43-2.52 4.84-4.72 10-8 14.23s-7.85 7.15-11.41 11.06c-2.31 2.54-2.4 6.77-5.91 8.62l1.2 1.94c-3.83 1.3-7.64 10.69-6.49 15.44 2 8.38 7 13.11 13.27 12.75 2.22 9.5 11.86 9.22 16 13.64a47.61 47.61 0 0 0 2.6 4.57c3.42 4.52 8.62 2.08 13 3 1.36.28 3.24-2.05 5.86-3.87 3.12.81 5.33-1.4 4.88-6.56 3.15-.79 6.73-.85 9.25-2.52C400 2.7 403.63.88 408.31 1.83c.51.1 1.43-.81 1.84-1.45 2.64-4.12 5.64-8.07 6.13-13.21.06-.67.87-1.36 1.48-1.87 3.15-2.73 5-5.89 5-10.3 0-2.59-.53-5.69 2.6-7.62.71-.43.74-3.06.18-4.25-1.65-3.59-3.71-7.13-7.07-5.55zM479.28-10l3 .74c-4.3 3.7-4.1 6.74 1 9-2.76 4.18 1.09 5.87 3.17 6.45 3.45.94 4.94 3.58 6.15 5.88 4.08 7.72 11.87 7.36 17.81 9.64 4.16 3.93 8.08 7 14.5 5.67-2.91 3.4-1.1 4.13 1.61 4.38 3.42.32 6.37.4 10-1.12 3.13-1.29 5.34-2.08 6.42-5.64 4 4 3.78-.64 5-2.1a84.46 84.46 0 0 0 7.51-9.9c2.74-4.57 9.54-8.2 14.65-7.18 2.83.57 7.29-2.17 8.59-4.67 1-2 2.79-3.57 4.32-5.46l1.51 2.33c3.66-2.36 2.47-5.33 1.39-8.09a32.44 32.44 0 0 0-3-5.21c-2-3.2-3.48-7.32-6.37-9.31-5-3.43-7.39-8.79-9.27-13.43-2.09-5.15-6.36-7.39-9.6-10.56-1.88-1.83-4.33-2.66-4.55-5.78a1.76 1.76 0 0 0-.95-1.26c-4.42-1.41-8.78-3.31-13.32-3.92-5-.68-10.12-.16-15.36-.16-.08 1.17-.15 2.08-.25 3.51l-2.06-2.45-.06 1.14-14.23 2c-.07.5-.21 1.59-.2 1.55-2.34 1.63-4.79 2.44-5.36 4-.68 1.81.24 4.23.48 6.47-5.49.88-24.81 28.24-22.53 33.48zM467.92 2.85c-.94-1.46-1.85-2.95-2.54-4.06-2.3-1.46-4.35-2.86-6.5-4.07-.86-.49-2.69-1-2.83-.78-1.89 3.2-5.24 2.54-7.95 2.82-3.45.36-7.32.63-10.42-.58-4.86-1.9-14.34-1.38-18.37 2.19-3 2.68-5.63 6.79-9.12 7.75-6.62 1.83-7.22 10-13.63 11.39-.22 0-.2.82-.44 1.15-3.26 4.4-3 9.45-3.12 14.57-.1 3.21.23 4.66 3.8 5s3.78 2.19 1.72 5.19a3.27 3.27 0 0 0 .25 3.16c2.81 2.38 5.64 5.56 10.62.46-1.93 5.56 1.3 4.77 2.92 5.73 2 2.68 4.17 6.34 6.89 6.81 4.61.79 9.57-.44 14.79-.84l-1.76-2.84c1.52-.31 3.24-.22 3.51-.79 2.39-5.18 7.14-8.06 11-11.78.28-.26.9-.44.9-.67 0-5.74 4.14-8.63 7.92-11.92 2.52-2.19 4.53-5 6.76-7.5l5.22-.56c.3-1.76.53-3.13.73-4.36.31-.19.49-.36.55-.32.45.28.87.59 1.31.9 1.1-2.45 1.4-4.17.69-5.9a13.37 13.37 0 0 0-3.63-4.4c3.19-1.6 2.08-3.6.73-5.75zM111.54 600c-.16-.36-.33-.73-.49-1.1l7.91-4.32c-1.29-.93-2.66-1.94-4-3a11.76 11.76 0 0 0 1.34.07c1.54-.05 1.47-1 1.1-5.9l-2.75-.45-1.46-.25c2-1.87 6.31-3.2.68-5.06-.49-.16-.42-2-.61-3.07l-3.57.45c-1.23-3.41-2.24-6.19-3.4-9.42l-3.49-.35c-.43-4.15-4.17-5.29-6.38-7.78-4.16-4.71-5.58 3.52-9 1.35-.17-1.81.1-4.3-3.23-2.85-.54.24-1.75.13-2-.23-2.82-4.65-7.63-4.22-12-5.09-6.16-8.49-15.47-4.15-23.2-5.47-1.24 1.07-2.23 2.4-3.56 3-2.54 1.15-5.32 1.77-7.91 2.84-1.05.43-2.61 1.41-2.66 2.23-.3 4.59-3.69 5.8-7.31 6.8l1.5 2.33c-3.64 1.68-7.74-.19-10.47 4.53-2.48 4.29-2.77 7.26 0 10.2l-2.74 3.06-.83.92 1.88.8 2 .85-3 2.74 3.54 2.65c-2.57 5.37-1.49 10.71 2.57 14 .3 2.22.66 4.57 2 6.12s3.66 2.47 5.23 3.46l-2.26.54-.27 1 9.14 4.88c.62-2.14 1-3.5 1.45-5C41 620.22 49.42 620.4 52.35 628l15-4.86c0-.36.09-.72.13-1.09l-4-2c2.53-4.53 8.91 2.27 10.71-4.16 5 0 5 0 6.7-5.26 4.63 1.6 5.06 1.34 9.19-3.22.74-.81 2.82-1.42 3.64-1 3.18 1.75 10.29 1 12.65-1.51a8.45 8.45 0 0 1 2.88-1.53c1.65-.75 3.32-1.43 5-2.14l-.35-.84zm65.31 57.62l.12 1 5.41.55c.13 1 .25 1.91.32 2.47l7.3 1.85c2.57-1.08 4.93-2.89 5.88-2.32 2.75 1.63 4.16.38 5.92-1.25a6.15 6.15 0 0 1 3.14-1.8c2.92-.27 5.21-.75 3.52-5.28 6.08 5.36 10.3 3.2 14.19-1.76 2.56-3.28 5-7.07 8.34-9.21 3.57-2.25 3.78-4.7 2.68-8.72 5 3.17 5.56-1.2 7-2.74l-18.18-32.64 2-.49a63.92 63.92 0 0 1 1.5-6.87c1.56-4.63.41-8.64-3.75-11.18-3.62-2.21-7.33-4.27-11.1-6.2a64.15 64.15 0 0 0-7-2.87c-1.19-.44-2.67-.36-3.65-1-5.12-3.61-10.15-7.34-15.15-11.11-5.46-4.11-11.9-2.55-17-.85-4.68 1.56-8.16 6.76-7.75 12.92a3.35 3.35 0 0 1-.69 2.28c-2.85 3-5.8 5.86-8.68 8.74l3.44 4.12c-5.65-.06-3.49 3.8-3.86 6.64-5.24 1.28-7.36 5.56-6.07 10.78.55 2.21 1 5.82-.15 6.81-3.85 3.26-.4 4.18.88 5.47-1 .91-2.38 1.65-2.55 2.61s1.05 2 1.31 2.4c-.26 3.67-1.32 7.32-.42 10.4.54 1.84 4.16 2.77 5.73 3.71-.41 1-1.84 2.81-1.4 3.77.66 1.44 2.56 2.41 4.09 3.32 2 1.21 5.05 1.62 6.13 3.34 2.48 4 5.52 5.41 9.89 4.25-.47 4.05 2.49 5.8 5 6.65 2.93 1 6.36.54 9.58.71v.68zM287.9 624c1.05-.94 2.58-1.51 3.31-2.63 2-3.09 3.33-6.48 7.77-7.39 3.49-.71 6.82-2.48 10-4.16 1.51-.79 2.34-3.08 3.86-3.65 2.84-1 3.12-2.51 1.69-4.69l3.05-2.2-2.54-3.07c1.15-1.53 2.46-2.48 2.54-3.52.32-4.24.24-8.51.37-12.77.2-6.6 1-13.26.4-19.77-.26-2.72-.7-4.61 1.27-6.64 1.5-1.54.77-6.16-1-7.3-3.12-1.95-5.71-5.22-10.14-4-.33.09-.92-.79-1.41-1.19-.89-.73-1.81-1.42-2.71-2.14-3.72-3-8.72-2.39-12.57-4.14-4.83-2.19-8.54 0-12.64.6-2.64.37-5.79 1.59-4.27 4.64l-6.74 4.76c.71.86 1.41 1.72 2.07 2.54a9.62 9.62 0 0 0-5.74 9.89l-4.94 5.33c-7.67 1-7.67 1-6.14 4.79l-3.67 1c.44 2.42 1.42 4.44.82 5.23-1.26 1.62-3.59 2.37-5.05 3.89a27.82 27.82 0 0 0-4.18 5.89c-.73 1.32-.72 3-1.32 4.47-2.12 5.08-.51 12.72 3.35 15.69 1.72 1.32 3.33 2.78 5 4.15 1.49 1.2 3 2.36 4.53 3.54-.09.89-.81 2.58-.25 3.49a86.74 86.74 0 0 0 7.29 10.24c3.63 4.32 7.72 8 14.14 5.65a4.84 4.84 0 0 1 2.54.17c3.18.71 5.48-.61 7.49-2.93a41.52 41.52 0 0 1 3.82-3.77zm130.57-66.42l-24.63-13.83a12.3 12.3 0 0 0-.47-2.63c-1-3.1-2.25-6.14-3.32-9.23-2-5.83-6.18-7.64-12-5.28-2.09.85-4.35 2.14-6.4 1.95-2.93-.28-8.25 1.74-9.65 4.43-2.52 4.84-4.72 10-8 14.23s-7.85 7.15-11.41 11.06c-2.31 2.54-2.4 6.77-5.91 8.62l1.2 1.94c-3.83 1.3-7.64 10.69-6.49 15.44 2 8.38 7 13.11 13.27 12.75 2.22 9.5 11.86 9.22 16 13.64a47.61 47.61 0 0 0 2.6 4.57c3.42 4.52 8.62 2.08 13 3 1.36.28 3.24-2.05 5.86-3.87 3.12.81 5.33-1.4 4.88-6.56 3.15-.79 6.73-.85 9.25-2.52 3.83-2.54 7.42-4.36 12.1-3.41.51.1 1.43-.81 1.84-1.45 2.64-4.12 5.64-8.07 6.13-13.21.06-.67.87-1.36 1.48-1.87 3.15-2.73 5-5.89 5-10.3 0-2.59-.53-5.69 2.6-7.62.71-.43.74-3.06.18-4.25-1.69-3.64-3.75-7.18-7.11-5.6zM479.28 590l3 .74c-4.3 3.7-4.1 6.74 1 9-2.76 4.18 1.09 5.87 3.17 6.45 3.45.94 4.94 3.58 6.15 5.88 4.08 7.72 11.87 7.36 17.81 9.64 4.16 3.93 8.08 7 14.5 5.67-2.91 3.4-1.1 4.13 1.61 4.38 3.42.32 6.37.4 10-1.12 3.13-1.29 5.34-2.08 6.42-5.64 4 4 3.78-.64 5-2.1a84.46 84.46 0 0 0 7.45-9.89c2.74-4.57 9.54-8.2 14.65-7.18 2.83.57 7.29-2.17 8.59-4.67 1-2 2.79-3.57 4.32-5.46l1.51 2.33c3.66-2.36 2.47-5.33 1.39-8.09a32.44 32.44 0 0 0-3-5.21c-2-3.2-3.48-7.32-6.37-9.31-5-3.43-7.39-8.79-9.27-13.43-2.09-5.15-6.36-7.39-9.6-10.56-1.88-1.83-4.33-2.66-4.55-5.78a1.76 1.76 0 0 0-.95-1.26c-4.42-1.41-8.78-3.31-13.32-3.92-5-.68-10.12-.16-15.36-.16-.08 1.17-.15 2.08-.25 3.51l-2.06-2.45-.06 1.14-14.23 2c-.07.5-.21 1.59-.2 1.55-2.34 1.63-4.79 2.44-5.36 4-.68 1.81.24 4.23.48 6.47-5.43.87-24.75 28.23-22.47 33.47zm-11.36 12.85c-.94-1.46-1.85-3-2.54-4.06-2.3-1.46-4.35-2.86-6.5-4.07-.86-.49-2.69-1-2.83-.78-1.89 3.2-5.24 2.54-7.95 2.82-3.45.36-7.32.63-10.42-.58-4.86-1.9-14.34-1.38-18.37 2.19-3 2.68-5.63 6.79-9.12 7.75-6.62 1.83-7.22 10-13.63 11.39-.22 0-.2.82-.44 1.15-3.26 4.4-3 9.45-3.12 14.57-.1 3.21.23 4.66 3.8 5s3.78 2.19 1.72 5.19a3.27 3.27 0 0 0 .25 3.16c2.81 2.38 5.64 5.56 10.62.46-1.93 5.56 1.3 4.77 2.92 5.73 2 2.68 4.17 6.34 6.89 6.81 4.61.79 9.57-.44 14.79-.84l-1.76-2.84c1.52-.31 3.24-.22 3.51-.79 2.39-5.18 7.14-8.06 11-11.78.28-.26.9-.44.9-.67 0-5.74 4.14-8.63 7.92-11.92 2.52-2.19 4.53-5 6.76-7.5l5.22-.56c.3-1.76.53-3.13.73-4.36.31-.19.49-.36.55-.32.45.28.87.59 1.31.9 1.1-2.45 1.4-4.17.69-5.9a13.37 13.37 0 0 0-3.63-4.4c3.19-1.6 2.08-3.6.73-5.75zm-5.92-38c1.16 0 2.19 1.56 3.41 2.13 1 .46 2.46 1 3.2.63 3.14-1.73 6.76-2.81 8.78-6.2a8.47 8.47 0 0 1 2.58-2.51c3.46-2.32 3.46-5.78.25-7.72.36-2.5.69-4.81 1.06-7.44-2-1.92-2-4.57-.11-8.1a4.81 4.81 0 0 0 .42-3.65c-1.59-3.75-3.52-7.35-5.29-11l1.94-2c-1.71-1.69-3.83-2.91-4.63-4.72-2.84-6.45-9.24-6.33-14.45-8.13-3.57-1.23-7.6-.52-11.43-1.14-5.68-.93-11.49-.79-16.94-3.18a6 6 0 0 0-4.64.21c-1.91 1.05-2.69.39-3.59-1.08-1.77-2.89-3.15-2.91-5.3-.12-1-1.52-2.27-2.8-3.66-.67-2.63 4.05-7.68 6.3-8.59 11.65-.08.44-1.2.72-1.85 1s-1.58.4-1.75.84c-1.22 3.06-3.15 6.17-.89 9.5a20.93 20.93 0 0 0 3.31 3.48c1.14 1 2.4 1.93 4 3.19 0 .05-.54 1.37-.15 1.75a101 101 0 0 0 8.67 7.88c.84.66 3.34-.06 3.58.5 1.79 4.07 5.08 4 8.68 4 1.78 0 3.57.74 5.36 1.15l-.58.68a20.23 20.23 0 0 0 3.26 2.57c3.89 2 7.9 3.69 11.83 5.59a11.43 11.43 0 0 1 3.79 2.39c1.24 1.46 1.59 4 3 4.88 1.25.78 3.51-.06 5.4-.19-.95 1.65-2.98 3.66 1.33 3.83zM478.72 138c1.17-1 2.86-1.67 3.67-2.91 2.25-3.43 3.7-7.19 8.62-8.2 3.87-.79 7.57-2.75 11.12-4.61 1.68-.89 2.59-3.42 4.28-4 3.15-1.17 3.46-2.79 1.88-5.21l3.38-2.44c-1.33-1.61-2.36-2.85-2.81-3.41 1.27-1.69 2.72-2.74 2.81-3.9.36-4.7.27-9.44.41-14.16.23-7.32 1.17-14.71.45-21.94-.3-3-.78-5.11 1.4-7.36 1.67-1.71.86-6.83-1.15-8.09-3.46-2.18-6.34-5.8-11.25-4.41-.36.1-1-.88-1.56-1.32-1-.81-2-1.57-3-2.37-4.13-3.33-9.68-2.66-14-4.6-5.36-2.43-9.48 0-14 .67-2.93.41-6.43 1.76-4.74 5.14l-7.47 5.28c.78 1 1.56 1.91 2.29 2.82a10.66 10.66 0 0 0-6.36 11c-2.14 2.29-3.58 3.85-5.49 5.91-8.51 1.16-8.51 1.16-6.8 5.31l-4.08 1.11c.48 2.68 1.58 4.92.91 5.8-1.39 1.8-4 2.63-5.61 4.32a31.32 31.32 0 0 0-4.62 6.48c-.81 1.48-.8 3.39-1.46 5-2.35 5.64-.57 14.11 3.72 17.4 1.9 1.47 3.69 3.09 5.56 4.6 1.66 1.34 3.36 2.63 5 3.93-.1 1-.9 2.87-.28 3.87a96.4 96.4 0 0 0 8.09 11.37c4 4.79 8.56 8.84 15.68 6.26a5.48 5.48 0 0 1 2.82.18c3.53.8 6.08-.66 8.3-3.24a46.91 46.91 0 0 1 4.29-4.28zm-290.39 85.49l.13.95 5.41.55c.13 1 .24 1.91.32 2.47l7.3 1.85c2.56-1.08 4.92-2.89 5.88-2.32 2.75 1.63 4.15.38 5.92-1.25a6.08 6.08 0 0 1 3.13-1.8c2.93-.27 5.21-.75 3.53-5.28 6.07 5.36 10.29 3.2 14.18-1.76 2.57-3.28 5-7.07 8.35-9.21 3.57-2.25 3.77-4.7 2.68-8.72 5 3.17 5.55-1.2 7-2.74q-9.28-16.69-18.17-32.64l2-.49a66.44 66.44 0 0 1 1.5-6.87c1.57-4.63.41-8.64-3.75-11.18-3.61-2.21-7.33-4.27-11.1-6.2a64.81 64.81 0 0 0-7-2.87c-1.19-.45-2.68-.36-3.65-1-5.13-3.61-10.16-7.34-15.16-11.11-5.46-4.11-11.9-2.55-17-.85-4.69 1.56-8.17 6.76-7.75 12.91a3.32 3.32 0 0 1-.7 2.29c-2.84 3-5.8 5.86-8.68 8.73l3.44 4.13c-5.64-.06-3.48 3.79-3.86 6.64-5.24 1.27-7.35 5.55-6.06 10.77.54 2.21 1 5.83-.16 6.82-3.84 3.26-.4 4.18.88 5.47-1 .91-2.38 1.65-2.55 2.61s1.06 2 1.31 2.4c-.25 3.67-1.31 7.32-.41 10.4.54 1.83 4.15 2.77 5.72 3.71-.4 1-1.84 2.81-1.4 3.77.67 1.44 2.57 2.41 4.09 3.32 2 1.21 5.06 1.62 6.13 3.33 2.48 4 5.53 5.41 9.89 4.26-.46 4.05 2.5 5.8 5 6.65 2.93 1 6.37.54 9.58.71v.68zm329.83 74.25c-1.49-1.86-2.91-3.78-4.44-5.79a21.61 21.61 0 0 0-.81-3.22C511 284 507 280.9 502.78 279c-3.51-1.6-8-1.33-12-1.44-1.09 0-2.16 2.24-3.35 2.35-3.42.32-5.2 1.84-5 5.4-4.66-1.94-6.56-.71-6.25 4.21a46.18 46.18 0 0 0-27.81 8.77c.15.56.41 1.51.61 2.2-3.55.21-6.91.3-10.24.66-.68.08-1.89 1.35-1.77 1.7.93 2.68-1.45 2.49-2.56 3.63-3.12 3.2-6.74 6.57-8.11 10.58-1.05 3.1.76 7.33 1.77 10.92.72 2.54 1.63 6 3.52 7 2.65 1.35 2.52 2.7 2.4 4.87a13.29 13.29 0 0 0 .64 4.64c1 3.12 2.47 6.09 3.3 9.25 1 3.89 2.85 6.55 7.06 7.5 1.42.33 2.38 2.32 3.81 3a21.93 21.93 0 0 0 5.79 1.82 62.88 62.88 0 0 0 6.5.51c.47-1.89 2.31-2.46 5.09-1.89 3.29.67 6.22-1.25 6.36-3.59a25.32 25.32 0 0 1 1-4.19c-3.63-2.87 2.77-4.8 1.19-7.48 4.6-2.15 8.78-3.07 12.35 1.35a2.88 2.88 0 0 0 2.2.53c5.26-.62 10.52-1.28 15.76-2.08a4.69 4.69 0 0 0 2.64-1.53c1.56-1.86 2.69-4.12 4.39-5.82s4.05-2.74 5.81-4.39a30.68 30.68 0 0 0 4.79-5.75c.93-1.46 1.18-3.34 1.8-5 1.42-3.83 3.11-7.58 4.26-11.48 1.08-3.65-.94-6.33-3.44-8.9a109.06 109.06 0 0 1-7.13-8.61zm12.56-173.93a47.46 47.46 0 0 1 4.14 3.67c1.29 1.3 2.41 2.85 3.68 4.18 1 1 2.12 1.9 3.18 2.84s2.35 1.58 3.19 2.66c2 2.56 3.66 5.45 5.63 8s4.33 5.23 6.55 7.78 4.66 5.32 7 7.94c1.86 2.07 4.48 3.75 5.45 6.21a13.81 13.81 0 0 1 .36 8.69c-1.73 4.74-.73 10.8-4.43 14.61-.5.52.09 2.49.21 3.79 0 .58.43 1.49.23 1.69-2.36 2.44-1.08 8.53-6.13 8 .24 3 .76 5.45-3.07 4.62-2-.44-4.32 1.59-6.14 2.36l-6.18-1.51c0 .35-.09.71-.13 1.06l3.73 1.28-.21 1.57c-1.79-.34-3.88-.08-5.3-1.14a25.27 25.27 0 0 1-5.83-6.48c-1.08-1.7-1.26-4.13-2.15-7.35-1.66 3.59-2.77 2.53-4.22.9-2-2.28-3.65-5.69-7.19-5-.45.08-1.14-1-1.44-1.33-1.65.5-3.55 1.63-4 1.11-2.7-3.25-6.26-3.73-9.46-5.07-4.43-1.84-7-6.32-10.23-9.72a31 31 0 0 1-3.37-3.88c-2.3-3.44-3.75-6.94.14-10.45-3.63-.9-3.42-3.46-2.42-5.14 1.86-3.09 1.8-6.59 2-10.14a5.7 5.7 0 0 1 .38-1.75c1.09-2.91 3.33-5.41 1.62-9.27a2.13 2.13 0 0 1 .47-1.66c1.85-2.23 3.78-4.37 5.78-6.67 2 1.65 3.58 1.81 5.09-.39.38-.55 2 .09 3.33.21 1-2.35 9-3.16 13.44-.64.33-.84.68-1.68 1-2.54.73-1.98 4.14-3.98 5.3-3.04zM236.9 447.84c2.21-2.6 7.57-2.66 11.45-4 2.59-.91 5.27-2 3.56-5.88 1.5.16 2.79.39 4.09.42 2.36.05 5.62.93 6.93-.22 6.18-5.39 14.36-1.26 20.69-5.07 3.77 3.19 4.39-.46 5-1.53l15.13-2c.39-2.55 1.64-5.46 1-7.85a17 17 0 0 1-.36-8.91c.57-2.32-.87-5.29.14-7.25 3-5.83 1-12.06.1-17-1.29-6.89-9.1-10-16.47-12-5.72-1.56-11.81 2.41-17.21-1.19-.21-.14-.79.33-1.22.42-2.22.45-4.95 1.88-6.57 1.13-5.61-2.61-11.14-.39-16.67-.19-3.47.12-6.94.81-10.94 1.31l-.68 3.13c-.67.05-1.15.21-1.26.07-4-4.73-9.95-4.14-15.35-5-1.06-.17-2.84.17-3.31.87-1.11 1.65-1.63 3.66-2.58 6-2.79-4.64-6.43-4-10.31-2.57-.74 2.4-1.47 4.78-2.44 8l-6.85-.58c-.68 2.17-2.12 4.93-2.33 7.75-.46 6 .92 12.34-.7 18-1.87 6.55-1 11.89 2.66 17.62l-5.16-.15a41.57 41.57 0 0 0 2.22 5.37c1.09 1.86 3.07 3.33 3.75 5.29 2.08 5.93 4.7 11.06 11.66 11.09 0 1.79-.63 3.73 0 4.17 1.43 1 3.54 2.06 5.16 1.77 2.3-.4 4.31-2.33 6.61-3 6.96-2.13 14.64-1.4 20.26-8.02zm192.92-82.93a2 2 0 0 1-.92-.77c1.83-2.85-1.32-4.21-2.06-6.17-1.41-3.72-3.22-7.63-7.08-8.47-.29-1.68-.06-3.5-.85-4.32-3.42-3.48-7.15-6.66-10.36-9.59.63-1.23 1.83-2.81 1.55-3.15-2.63-3.16-2.1-9.32-8.6-9.06.15-3.21-1.41-4-4.54-3.73-1.84.16-3.8-1.12-5.7-1.78-1.15-.4-2.32-1.32-3.4-1.21-3.49.37-7.18-2-10.58.9-.61.52-2.68.06-3.57-.62-3.43-2.57-6.61-1.54-9.92-.45a13.87 13.87 0 0 0-5.27-.69c-.77 0-2 .88-2.2.65-3.26-3.63-4.81-.26-6.38 1.53l-4.81-.88c.18.39.37.79.56 1.18a45.88 45.88 0 0 0-5.13 4.59c-1.9 2.23-4.21 4.58-4.91 7.25-1 3.71-.94 7.59-6 9.18l2.48 1.14c-4.95-.61-5 3.15-6.09 6.16-1.46 3.94-3.63 7.65-4.88 11.65-.73 2.34-1.48 5.24 2.29 6.73 2.09.83 1.6 2.38-.29 3.79-1.16.87-2.47 2.92-2.19 4.07 1.66 7 7.08 11.42 12.09 15.87 1.64 1.45 5 1 7.61 1.41-1 5.91 5.6.62 6.16 4.37l1.44-2.45a11.37 11.37 0 0 0 15.56-1.1c.63-.67 1.87-1.59 2.45-1.37 4.89 1.84 8.95-.66 13.47-1.73 5.55-1.31 9.38-4.46 13.34-7.47a29.68 29.68 0 0 0 6.82-.69c1.12-.2 2.34-.75 3.34-.49 4.08 1.09 8.1 2.43 12.73 3.85l1-1.31c2 1.64 3.77 4.23 5.68 4.36 3.47.23 7 .21 10.51-2.24 4-2.82 6.35-7.88 2.93-11.59-2.1-2.37-2.1-6.76-6.28-7.35zm-239.93-73.08l.06.07zm0 0l-.76-.9c6.19-.85 2.86-4.39 1.91-6.94 1.16-1 2.6-1.61 2.84-2.55a23.67 23.67 0 0 0 .32-5.73c.05-7.91.26-15.82 0-23.72-.14-4.19-1-8.39-4.92-11.08-1.46-1-3.45-1.91-4-3.34-2.11-5.22-6.81-5.61-11.13-6.19-2.69-.37-4.58-.18-3.68-3.77.16-.63-1.14-1.81-2-2.46-.58-.46-1.77-.21-2.26-.7-3.13-3.13-6-6.55-9.27-9.51a11.1 11.1 0 0 0-5.88-3c-5.37-.46-6.82-1.66-7.29-6.91a33.82 33.82 0 0 0-1.68-7.9c-1.28-3.73-5.35-4.94-8.68-2.85-2.87 1.79-5.49 4.57-9.39 2.24a2 2 0 0 0-1.64.27c-2.62 1.52-5.2 3.11-8.93 5.36h7v1.41c-3.28 0-6.58-.19-9.83.07a17.72 17.72 0 0 0-6.35 1.67c-1.21.61-1.88 2.31-3.36 4.29.5 1.63 1.29 4.23 2.29 7.52-1.22 2.28 1.63 13.28 4.52 14.77-1.93 3.68-1.93 3.68-.26 4.79-.14 2.8-.29 4.39-.26 6 0 1 .59 2 .38 2.93-.87 3.8.46 5.69 4.89 5.27-4.49 3.57-4.46 5.17-.36 8.52 1.81 1.48 3.64 2.95 5.46 4.43l4.34-1.6-1.53 2.27c1.94.52 3.65 1 4.54 1.22-.25 1.41-.95 3.67-.64 3.82 3.18 1.52 5.5 6.19 10.44 2-.49 7.45 4.63 3.47 7 5 .12.72 0 1.82.43 2.3 2.74 2.79 5.62 5.44 8.47 8.11.18.17.58.09.81.24 2.46 1.59 4.71 3.84 7.4 4.65 3.42 1 5.05 6.88 9.86 3.31.76 4.83.76 4.83 9.94 5.92zm28.72 9.73a26.76 26.76 0 0 0 6.55 1.38c3.47.15 7-.11 10.45-.28 1.5-.08 3.19-.91 4.45-.45 2.85 1.05 4.68.7 5.47-2.44 6 .88 11.76.06 16.92 3 1 .55 2.54 0 3.76.22 7.72 1.66 9.49-6.72 15-8.8 4-8.88 8-17.75 11.9-26.64 1.79-4 3.77-8.08 1.53-12.64-.21-.42.13-1.08.1-1.62-.08-1.53.37-3.56-.43-4.48-2.9-3.33-6.23-6.29-9.34-9.34 2.65-3.83 2.64-3.89-1-6.28-.82-5.37-1.58-10.41-2.43-15.94l-4.71-.74c1.38-3.4-1.48-5.35-3-4.55-3.16 1.62-7.86-.3-9.73 4.14-.25.58-.93 1.33-1.46 1.38-6.12.59-8.47 5.83-12 9.62a49.1 49.1 0 0 0-3.7 5c-1.43.22-2.94.07-4 .7-2.24 1.36-4.24 4.49-6.32 4.47-7.32-.07-10.91 6.73-17.2 8.39-2.12.56-3.79 2.8-6.21 4.7l-.2 2.52c-3.64-1.05-6.09.52-6.46 4.1-.25 2.54-1 5.26-.39 7.6 1 3.69-2.35 9 4.1 10.67-4 2.8-4 3.29-.08 5.92l-2.67 2.5 5.06 2.74c-6.24 6.63 3 7.34 4.18 11.07l-2.52 1.91a30.57 30.57 0 0 0 4.38 2.17zm80.77-111.73c1.06-.94 2.58-1.51 3.31-2.63 2-3.09 3.33-6.48 7.77-7.39 3.49-.71 6.82-2.48 10-4.16 1.52-.79 2.34-3.08 3.87-3.65 2.83-1.05 3.11-2.51 1.69-4.69l3-2.2-2.47-3.11c1.14-1.53 2.45-2.48 2.53-3.52.33-4.24.25-8.51.38-12.77.2-6.6 1-13.26.4-19.77-.27-2.72-.71-4.61 1.26-6.64 1.5-1.54.77-6.16-1-7.3-3.12-2-5.72-5.22-10.14-4-.33.09-.92-.79-1.41-1.19-.9-.73-1.82-1.42-2.71-2.14-3.73-3-8.73-2.4-12.57-4.14-4.83-2.19-8.55 0-12.64.6-2.65.37-5.8 1.59-4.28 4.64l-6.73 4.76 2.07 2.54a9.61 9.61 0 0 0-5.74 9.89l-4.97 5.4c-7.67 1-7.67 1-6.13 4.79l-3.68 1c.44 2.42 1.43 4.44.82 5.23-1.25 1.62-3.59 2.37-5.05 3.89a28.34 28.34 0 0 0-4.17 5.88c-.74 1.33-.73 3-1.33 4.48-2.11 5.08-.5 12.72 3.36 15.69 1.72 1.32 3.32 2.78 5 4.15 1.5 1.2 3 2.36 4.53 3.54-.09.89-.8 2.58-.25 3.48a86.12 86.12 0 0 0 7.3 10.25c3.62 4.32 7.72 8 14.14 5.65a4.85 4.85 0 0 1 2.54.17c3.17.71 5.48-.61 7.48-2.93a40.3 40.3 0 0 1 3.82-3.8zm119.18-70.55l-21.42-12a10.9 10.9 0 0 0-.4-2.29c-.9-2.69-2-5.34-2.89-8-1.75-5.07-5.38-6.64-10.45-4.59-1.81.73-3.77 1.86-5.56 1.69-2.55-.24-7.17 1.52-8.39 3.86-2.19 4.2-4.1 8.66-7 12.37s-6.83 6.21-9.93 9.61c-2 2.22-2.08 5.89-5.13 7.5l1 1.68c-3.33 1.14-6.64 9.31-5.64 13.43 1.75 7.29 6.12 11.4 11.53 11.09 1.93 8.26 10.31 8 13.94 11.86a40.72 40.72 0 0 0 2.27 4c3 3.93 7.49 1.8 11.26 2.56 1.17.24 2.81-1.79 5.09-3.37 2.71.71 4.64-1.22 4.24-5.7 2.74-.69 5.86-.74 8-2.19 3.33-2.21 6.46-3.79 10.53-3 .44.09 1.24-.7 1.6-1.26 2.29-3.58 4.9-7 5.32-11.49.06-.58.77-1.17 1.29-1.62a11.24 11.24 0 0 0 4.37-9c0-2.25-.45-4.94 2.27-6.62.61-.38.64-2.66.16-3.7-1.35-3.1-3.14-6.16-6.06-4.82zm-20.89 185.3c1.26-.67 3.3.3 4.94.14 1.33-.13 3.26-.43 3.8-1.32 2.25-3.78 5.43-7.18 5.47-12a10.31 10.31 0 0 1 1.18-4.26c2.24-4.62.09-8.29-4.53-8.36l-3.53-8.6c-3.34-.8-5-3.6-5.15-8.53a5.93 5.93 0 0 0-1.83-4.14c-4-3-8.3-5.63-12.41-8.34.3-1.24.54-2.25.81-3.35-2.86-.73-5.89-.71-7.86-2.14-7-5.08-13.74-1-20.39.35-4.56.9-8.39 4.16-12.85 5.89-6.6 2.54-12.7 6.3-20 7.15a7.36 7.36 0 0 0-4.8 3.1c-1.38 2.3-2.61 2.08-4.49 1.08-3.67-2-5.15-1.13-5.7 3.17-2-1-4.15-1.57-4.3 1.55-.28 5.94-4.25 11.47-1.9 17.71.2.52-.81 1.52-1.3 2.26s-1.43 1.41-1.34 2c.61 4 .49 8.51 5 10.64a25.31 25.31 0 0 0 5.67 1.64c1.85.39 3.76.56 6.22.91 0 .06.28 1.79.93 2a128.17 128.17 0 0 0 14.11 3c1.29.18 3.5-2.14 4.11-1.69 4.42 3.2 7.88 1.08 11.66-1.2 1.88-1.14 4.26-1.43 6.42-2.11l-.2 1.08a24 24 0 0 0 5.06.71c5.35-.35 10.68-1 16-1.41 1.84-.15 3.86-.4 5.51.18 2.23.79 4.16 3.24 6.26 3.29 1.82 0 3.7-2.25 5.62-3.55.14 2.21-.86 5.57 3.81 3.15zM282.47 72.31c-.94-1.47-1.85-3-2.54-4.07-2.3-1.46-4.35-2.86-6.5-4.07-.86-.49-2.69-1-2.83-.78-1.89 3.2-5.24 2.54-8 2.82-3.45.36-7.32.63-10.42-.58-4.86-1.9-14.34-1.38-18.37 2.19-3 2.68-5.63 6.79-9.12 7.75-6.62 1.83-7.22 10-13.63 11.39-.22.05-.2.82-.44 1.15-3.26 4.4-3 9.45-3.12 14.57-.1 3.21.23 4.66 3.8 5s3.78 2.19 1.72 5.19a3.27 3.27 0 0 0 .25 3.16c2.81 2.38 5.64 5.56 10.62.46-1.93 5.56 1.3 4.77 2.92 5.73 2 2.68 4.17 6.34 6.89 6.81 4.61.79 9.57-.44 14.79-.84l-1.76-2.84c1.52-.31 3.24-.22 3.51-.79 2.39-5.18 7.14-8 11-11.77.28-.27.9-.45.9-.68 0-5.74 4.14-8.63 7.92-11.92 2.52-2.19 4.53-5 6.76-7.5l5.22-.56c.3-1.76.53-3.13.73-4.36.31-.19.49-.36.55-.32.45.28.87.59 1.31.9 1-2.18 1.33-3.78.89-5.32s-1.67-3-3.83-5c3.24-1.54 2.13-3.61.78-5.72zm34.73 242.04c-1.94-.25-3.72-1.68-5.64-2.61l-9.68-2.37c0-3.29-1.34-3.85-4.05-1.73-.72.56-2.19 1.13-2.75.78-2.8-1.74-5.51-1.33-8.67-1.14-7.84.46-15.32 1.42-20.88 7.51-2.3 2.51-6.15 4-6.34 8.18-.14 3-.32 6-.4 9-.05 2 0 3.93.07 5.89.33 8.48-5.4 16.74-.09 25.73h5.07l-1.92 2.16c3.05.65 5.88 1.13 8.62 1.91a7.67 7.67 0 0 1 2.89 1.95c1.41 1.32 2.91 3.55 4.64 1s2.79-1.62 4.24-.15c2.09 2.13 4.15 3 6.16-.1.1-.16.51-.11.89-.17l1.06 2.37 6.5-2.53c3.55-1.37 6.84-2.56 8.28-7 .61-1.9 1.7-5 1.64-5.95-.29-4.28 2.35-6.84 4-10 3-5.86 5.93-11.76 8.53-17.8a25.48 25.48 0 0 0 2.29-9.17c.06-2.51-.81-5.28-4.46-5.76zm-14.03-85.41c.62.86 3.2.31 4.85.39-.54 3.77 2.2 6.44 6.62 6.7 1.6.1 4.86-.45 4.52 3.24 0 .29 1.07 1 1.6 1 4.25-.26 8.64.1 12.08-3.35 1-1 2.58-1.3 3.93-1.93.35 1.18.63 2.09.77 2.58 4.71-1.09 9.4-1.58 13.57-3.31 3.74-1.55 6.9-4.47 10.71-7.06 6.38 1.71 5.58-7 10.1-8.5 6.26-15.31.76-24.9-14.55-29.7l2.48-1.53c-6.21-8.69-16.27-5.2-23.91-8.59-.24-.1-.92.78-1.76 1.53l3.33 1.59c-1.1 1.94-2.19 3.83-3.71 6.51-.44-2.29-.73-3.82-1.3-6.77-2.42 2.49-4.63 4.05-5.86 6.16-2.74 4.72-6.7 8.38-9.92 12.59-4.05 5.29-10.64 8.33-13 15-4.22.35-3 3.93-3.95 6.36-1.45 3.72 1.92 5.04 3.4 7.09z" opacity=".04" fill="#231f20"/><g class="cls-2"><path class="cls-3" d="M-33.78 536.94c.62.86 3.2.31 4.85.39-.54 3.77 2.21 6.44 6.62 6.7 1.61.1 4.86-.45 4.53 3.24 0 .29 1.06 1 1.6 1 4.24-.26 8.63.1 12.08-3.35 1-1 2.58-1.3 3.92-1.93.36 1.18.63 2.09.78 2.58 4.71-1.09 9.4-1.58 13.57-3.31 3.73-1.55 6.89-4.47 10.7-7.06 6.39 1.71 5.58-7 10.11-8.5 6.26-15.31.76-24.9-14.55-29.7l2.47-1.53c-6.2-8.69-16.26-5.2-23.91-8.59-.24-.1-.92.78-1.75 1.53L.57 490l-3.72 6.51c-.44-2.29-.73-3.82-1.29-6.77-2.43 2.49-4.63 4-5.86 6.16-2.75 4.72-6.7 8.38-9.93 12.59-4.05 5.29-10.63 8.33-13 15-4.23.35-3 3.93-4 6.36-1.39 3.72 1.97 5.04 3.45 7.09zm94.2-115.4c1.43 1.81.66 5.32 1 8 .23 1.82.54 3.71 3.46 3.15-.34 1-.69 1.77-.91 2.61-.38 1.54-1.48 3.54-.9 4.56 2.73 4.8-1.31 9.56.32 14.23-2.74 2-.36 2.93.27 3.49-.31 3.56-.58 6.57-.9 10.17 1.67.61 3.45 1.84 5.18 1.76a12.15 12.15 0 0 1 6.1 1c1.49.7 3.73.18 4.91 1.11 3.5 2.77 8 2.38 11.55 2.47 4.88.13 8.19-4.53 10.66-9.06 1.92-3.52.15-8.05 3.42-11.08.12-.11-.11-.56-.1-.85 0-1.51-.53-3.5.22-4.45 2.62-3.3 2-7.22 2.65-10.86.45-2.29.5-4.65.77-7.33l-2-.89c.06-.44 0-.78.13-.83 3.82-1.94 4.32-5.92 5.71-9.33a2.6 2.6 0 0 0-.09-2.28 23.2 23.2 0 0 0-3.7-2.54c3.57-1.16 3.65-3.63 3.3-6.37l-5-2.71 1.43-4.39c-1.37-.76-3-2.08-4.92-2.62-4-1.15-8.51-1.14-12.1-3a14.52 14.52 0 0 0-12.38-.75l.89-3.34a29.22 29.22 0 0 0-4 .69c-1.43.45-2.73 1.53-4.16 1.7-4.34.52-8.22 1.51-9.3 6.06-1.2-.29-2.44-.94-2.82-.61a5.23 5.23 0 0 0-2 3.12c-.07 1.56.93 3.14 1 4.74.32 4.89-1.34 9.83 2.31 14.43zm50.21-140.33a1.94 1.94 0 0 1-.93-.78c1.83-2.84-1.32-4.21-2.06-6.16-1.41-3.73-3.22-7.64-7.07-8.47-.3-1.68-.06-3.51-.86-4.32-3.42-3.49-7.14-6.67-10.35-9.59.63-1.24 1.82-2.81 1.54-3.15-2.63-3.17-2.1-9.33-8.6-9.07.16-3.21-1.41-4-4.53-3.73-1.84.16-3.81-1.11-5.71-1.77-1.15-.4-2.32-1.32-3.4-1.21-3.49.36-7.18-2-10.58.89-.61.52-2.67.06-3.57-.61-3.43-2.58-6.61-1.55-9.92-.45a13.64 13.64 0 0 0-5.27-.7c-.76 0-2 .89-2.19.65-3.26-3.63-4.81-.26-6.39 1.54l-4.81-.89c.19.4.38.79.56 1.18a48.93 48.93 0 0 0-5.13 4.59c-1.89 2.24-4.21 4.58-4.91 7.26-1 3.7-.94 7.58-6 9.17l2.55 1.15c-5-.62-5 3.15-6.1 6.15-1.45 3.95-3.62 7.65-4.87 11.65-.73 2.34-1.48 5.25 2.28 6.73 2.1.83 1.61 2.38-.29 3.8-1.15.86-2.46 2.91-2.19 4.07 1.66 7 7.09 11.42 12.1 15.86 1.64 1.45 5 1 7.6 1.41-1 5.91 5.61.63 6.16 4.37.63-1.07 1-1.73 1.45-2.45a11.36 11.36 0 0 0 15.55-1.09c.63-.68 1.88-1.6 2.45-1.38 4.89 1.84 9-.66 13.47-1.72 5.55-1.31 9.39-4.47 13.35-7.48a29.74 29.74 0 0 0 6.82-.69c1.11-.19 2.33-.75 3.33-.48 4.09 1.08 8.1 2.42 12.73 3.85l1-1.32c2 1.65 3.76 4.23 5.67 4.36 3.48.23 7 .21 10.51-2.24 4-2.81 6.36-7.87 2.93-11.58-2.2-2.38-2.1-6.76-6.32-7.35zM-19.81 106.12c1-.94 2.58-1.51 3.31-2.62 2-3.1 3.33-6.49 7.77-7.4 3.48-.71 6.82-2.47 10-4.15 1.51-.8 2.33-3.09 3.86-3.65 2.87-1.06 3.14-2.52 1.71-4.7l3.05-2.2-2.54-3.07c1.15-1.53 2.45-2.48 2.53-3.52.33-4.24.25-8.51.38-12.77.2-6.6 1.05-13.26.4-19.77-.27-2.71-.7-4.61 1.26-6.63 1.51-1.55.78-6.17-1-7.3-3.12-2-5.71-5.23-10.14-4-.33.09-.92-.79-1.41-1.19-.89-.72-1.81-1.41-2.71-2.13-3.72-3-8.72-2.4-12.57-4.15-4.83-2.19-8.54 0-12.64.6-2.64.38-5.79 1.59-4.28 4.64l-6.73 4.76c.7.86 1.41 1.72 2.07 2.54a9.61 9.61 0 0 0-5.74 9.89l-4.94 5.33c-7.67 1.05-7.67 1.05-6.14 4.79l-3.67 1c.43 2.41 1.42 4.43.81 5.22-1.25 1.62-3.58 2.38-5 3.89a28.14 28.14 0 0 0-4.17 5.89c-.74 1.33-.72 3-1.32 4.48-2.12 5.08-.51 12.71 3.35 15.68 1.72 1.32 3.33 2.79 5 4.15 1.49 1.21 3 2.37 4.53 3.54-.09.9-.81 2.59-.25 3.49A87.69 87.69 0 0 0-47.8 107c3.63 4.32 7.72 8 14.14 5.64a5 5 0 0 1 2.54.17c3.18.71 5.48-.6 7.48-2.93a44.31 44.31 0 0 1 3.83-3.76zm98.28 114.75c1.26-.67 3.3.3 5 .14 1.33-.12 3.26-.42 3.79-1.32 2.26-3.78 5.43-7.18 5.47-12a10.48 10.48 0 0 1 1.19-4.27c2.24-4.61.08-8.29-4.53-8.35l-3.5-8.57c-3.33-.79-5-3.59-5.14-8.53a6 6 0 0 0-1.83-4.14c-4-3-8.31-5.62-12.42-8.34l.81-3.35c-2.86-.72-5.88-.7-7.85-2.13-7-5.09-13.75-1-20.4.34-4.55.91-8.39 4.17-12.85 5.89-6.6 2.54-12.69 6.3-20 7.15a7.34 7.34 0 0 0-4.79 3.1c-1.39 2.3-2.62 2.08-4.49 1.08-3.68-2-5.16-1.13-5.71 3.17-2-1-4.15-1.56-4.29 1.56-.29 5.93-4.25 11.46-1.9 17.71.19.52-.82 1.51-1.31 2.26s-1.43 1.4-1.34 2c.61 4 .5 8.51 5 10.64A25.25 25.25 0 0 0-7 216.5c1.85.4 3.75.56 6.22.91 0 .07.27 1.79.92 2a128.66 128.66 0 0 0 14.11 3c1.3.18 3.5-2.14 4.12-1.69 4.42 3.21 7.88 1.09 11.66-1.2 1.88-1.13 4.26-1.43 6.41-2.11l-.19 1.09a24.55 24.55 0 0 0 5.05.7c5.35-.35 10.69-1 16-1.41 1.83-.14 3.85-.4 5.51.18 2.22.79 4.16 3.24 6.26 3.3 1.82 0 3.7-2.25 5.62-3.56.06 2.23-.85 5.62 3.78 3.16zM-2 237.45c-1.93-.34-3.72-2.28-5.63-3.54l-9.68-3.19c0-4.45-1.34-5.22-4.05-2.35-.72.77-2.19 1.53-2.75 1.06-2.8-2.35-5.52-1.8-8.67-1.55-7.85.63-15.32 1.93-20.89 10.15-2.3 3.41-6.15 5.4-6.34 11.07-.14 4.06-.31 8.11-.39 12.17-.06 2.65 0 5.31.07 8 .33 11.46-5.41 22.63-.09 34.77h5.07l-1.93 2.92c3.06.88 5.88 1.53 8.63 2.58a8 8 0 0 1 2.88 2.64c1.41 1.79 2.91 4.8 4.64 1.38s2.79-2.19 4.24-.2c2.1 2.88 4.15 4.05 6.17-.14.1-.21.51-.15.88-.24l1.06 3.21 6.5-3.42c3.56-1.85 6.84-3.46 8.28-9.49.62-2.57 1.7-6.82 1.64-8.05-.29-5.78 2.35-9.24 4-13.57 3-7.92 5.93-15.89 8.54-24.05a44.7 44.7 0 0 0 2.29-12.39c.05-3.39-.81-7.12-4.47-7.77zm-14-92.21c.62.85 3.2.3 4.85.38-.54 3.77 2.21 6.44 6.62 6.7 1.61.1 4.86-.44 4.53 3.24 0 .3 1.06 1 1.6 1 4.24-.26 8.63.09 12.08-3.36 1-1 2.58-1.3 3.92-1.93.36 1.18.63 2.1.78 2.58 4.71-1.09 9.4-1.57 13.57-3.3 3.73-1.55 6.89-4.48 10.7-7.06 6.39 1.7 5.58-7 10.11-8.51 6.26-15.3.76-24.9-14.55-29.7l2.47-1.53c-6.2-8.69-16.26-5.2-23.91-8.58-.24-.11-.91.78-1.75 1.53l3.33 1.58-3.75 6.52c-.44-2.29-.73-3.83-1.29-6.78-2.43 2.5-4.63 4-5.86 6.17-2.75 4.71-6.7 8.38-9.93 12.58-4.05 5.29-10.63 8.33-13 15-4.23.34-3 3.92-4 6.35-1.39 3.74 1.97 5.06 3.48 7.12zM1 353.23l-3 2.73 3.54 2.65c-2.57 5.37-1.49 10.71 2.57 14 .3 2.22.66 4.57 2 6.12s3.66 2.48 5.23 3.46l-2.26.54c-.09.32-.17.65-.26 1l9.18 4.88c.62-2.13 1-3.5 1.44-5 5.75 4.7 14.13 4.87 17.07 12.51l15-4.86.12-1.08-4-2c2.52-4.53 8.91 2.28 10.7-4.16 4.95 0 4.95 0 6.71-5.26 4.62 1.6 5 1.35 9.18-3.22.74-.81 2.82-1.42 3.64-1 3.18 1.76 10.29 1 12.65-1.51a8.81 8.81 0 0 1 2.88-1.53c1.65-.74 3.33-1.43 5-2.14l-.35-.84-2.33-.49c-.16-.37-.33-.74-.49-1.1l7.91-4.32-4-2.95a8.14 8.14 0 0 0 1.67 0c1.2-.19 1.11-1.33.77-5.87l-2.9-.49-1.31-.21c2-1.88 6.31-3.21.69-5.06-.5-.17-.43-2-.61-3.08l-3.58.45c-1.23-3.4-2.23-6.19-3.4-9.41l-3.49-.36c-.42-4.15-4.17-5.28-6.37-7.78-4.17-4.7-5.59 3.52-9 1.36-.17-1.82.1-4.31-3.22-2.86-.55.24-1.76.13-2-.23-2.82-4.64-7.62-4.22-12-5.09-6.16-8.49-15.47-4.15-23.2-5.47-1.23 1.08-2.23 2.4-3.55 3-2.55 1.14-5.33 1.76-7.91 2.83-1.06.44-2.61 1.42-2.67 2.23-.3 4.6-3.68 5.8-7.31 6.8l1.5 2.34c-3.63 1.68-7.74-.19-10.46 4.52-2.49 4.3-2.78 7.26 0 10.21l-3.57 4zm-38.31 59.27c-1.25-.17-3.54.17-3.77.83-1.19 3.34-2.75 6.93-2.51 10.32.44 6.38-1.28 12.7 1.1 19.27 2 5.57 1.38 6.34 7.62 6.2-.63 2.85.46 3.94 3.42 4.82 2.25.66 3.62 3.88 5.74 5.48 2.83 2.13 6.49 3.3 8.91 5.75 3.25 3.29 6.06 6 11 3.52.63-.32 1.83.44 2.76.73 4.64 1.5 13.72-1.82 15.94-6l1.66 2.19L16 463c1.36 4.64 4.77 3.19 6.21 1.89 1.8-1.63 4-1.13 5.2-2 2.16-1.64 7.28-.43 6-5.51a10 10 0 0 0 8.78-9.75c.08-1.83-.15-3.78.39-5.47a36.05 36.05 0 0 0-1.47-26.22 49.54 49.54 0 0 0-2.73-5.63c-.77-1.29-1.71-2.87-3-3.41-3.83-1.64-8-2.55-11.76-4.28-6.21-2.84-12.35-2.1-18.65-.67-3.18.72-6.6 1.8-9.68 1.3-6.34-1-10.75 2.56-16 4.77s-10.41 5.34-16.6 4.48z"/></g><g class="cls-2"><path class="cls-3" d="M566.22 536.94c.62.86 3.2.31 4.85.39-.54 3.77 2.21 6.44 6.62 6.7 1.61.1 4.86-.45 4.53 3.24 0 .29 1.06 1 1.6 1 4.24-.26 8.63.1 12.08-3.35 1-1 2.58-1.3 3.92-1.93.36 1.18.63 2.09.78 2.58 4.71-1.09 9.4-1.58 13.57-3.31 3.73-1.55 6.89-4.47 10.7-7.06 6.39 1.71 5.58-7 10.11-8.5 6.26-15.31.76-24.9-14.55-29.7l2.47-1.53c-6.2-8.69-16.26-5.2-23.91-8.59-.24-.1-.92.78-1.75 1.53l3.33 1.59-3.72 6.51c-.44-2.29-.73-3.82-1.29-6.77-2.43 2.49-4.63 4-5.86 6.16-2.75 4.72-6.7 8.38-9.93 12.59-4 5.29-10.63 8.33-13 15-4.23.35-3 3.93-4 6.36-1.39 3.72 1.97 5.04 3.45 7.09zm25.34-169.08c-1.62-1.71-2.19-4.4-3.27-6.73l-7.23-9.56c2.5-3.07 1.68-4.62-2.47-4.7-1.1 0-2.9-.62-3.15-1.37-1.3-3.75-4.14-5.43-7.23-7.66-7.67-5.52-15.37-10.31-25.19-8.87-4.06.6-8.78-1-12.14 2.82-2.42 2.7-4.87 5.36-7.23 8.1-1.54 1.79-3 3.66-4.41 5.55-6.14 8.16-17.77 11.51-19.65 23.94l4.74 3.85-3.44.56c2.35 2.93 4.62 5.52 6.59 8.33a9.18 9.18 0 0 1 1.21 4c.31 2.31 0 5.53 3.55 4.48s3.84.61 4.07 3.09c.34 3.58 1.59 6 5.83 4.59.21-.07.56.29 1 .51-.29 1.06-.57 2.11-.82 3 2.85.92 5.42 1.74 8 2.58 4.36 1.43 8.33 2.82 13.07-.25 2-1.31 5.42-3.42 6.06-4.31 3-4.22 7.39-4.59 11.36-6.34 7.25-3.19 14.47-6.46 21.49-10.11a30.67 30.67 0 0 0 9.12-6.82c1.89-2.22 3.18-5.45.14-8.68zm-11.37-261.74c1-.94 2.58-1.51 3.31-2.62 2-3.1 3.33-6.49 7.77-7.4 3.48-.71 6.82-2.47 10-4.15 1.51-.8 2.33-3.09 3.86-3.65 2.84-1.06 3.12-2.52 1.69-4.7l3-2.2-2.54-3.07c1.15-1.53 2.45-2.48 2.53-3.52.33-4.24.25-8.51.38-12.77.2-6.6 1-13.26.4-19.77-.27-2.71-.7-4.61 1.26-6.63 1.51-1.55.78-6.17-1-7.3-3.12-2-5.71-5.23-10.14-4-.33.09-.92-.79-1.41-1.19-.89-.72-1.81-1.41-2.71-2.13-3.72-3-8.72-2.4-12.57-4.15-4.83-2.19-8.54 0-12.64.6-2.64.38-5.79 1.59-4.28 4.64l-6.73 4.76c.7.86 1.41 1.72 2.07 2.54a9.61 9.61 0 0 0-5.74 9.89l-4.94 5.33c-7.67 1.05-7.67 1.05-6.14 4.79l-3.67 1c.43 2.41 1.42 4.43.81 5.22-1.25 1.62-3.58 2.38-5 3.89a28.14 28.14 0 0 0-4.17 5.89c-.74 1.33-.72 3-1.32 4.48-2.12 5.08-.51 12.71 3.35 15.68 1.72 1.32 3.33 2.79 5 4.15 1.49 1.21 3 2.37 4.53 3.54-.09.9-.81 2.59-.25 3.49a87.69 87.69 0 0 0 7.3 10.24c3.63 4.32 7.72 8 14.14 5.64a5 5 0 0 1 2.54.17c3.18.71 5.48-.6 7.48-2.93a44.31 44.31 0 0 1 3.83-3.76zm98.28 114.75c1.26-.67 3.3.3 4.95.14 1.33-.12 3.26-.42 3.79-1.32 2.26-3.78 5.43-7.18 5.47-12a10.48 10.48 0 0 1 1.19-4.27c2.24-4.61.08-8.29-4.53-8.35l-3.5-8.57c-3.33-.79-5-3.59-5.14-8.53a6 6 0 0 0-1.83-4.14c-4-3-8.31-5.62-12.42-8.34l.81-3.35c-2.86-.72-5.88-.7-7.85-2.13-7-5.09-13.75-1-20.4.34-4.55.91-8.39 4.17-12.85 5.89-6.6 2.54-12.69 6.3-20 7.15a7.34 7.34 0 0 0-4.79 3.1c-1.39 2.3-2.62 2.08-4.49 1.08-3.68-2-5.16-1.13-5.71 3.17-2-1-4.15-1.56-4.29 1.56-.29 5.93-4.25 11.46-1.9 17.71.19.52-.82 1.51-1.31 2.26s-1.43 1.4-1.34 2c.61 4 .5 8.51 5 10.64a25.25 25.25 0 0 0 5.67 1.59c1.85.4 3.75.56 6.22.91 0 .07.27 1.79.92 2a128.66 128.66 0 0 0 14.11 3c1.3.18 3.5-2.14 4.12-1.69 4.42 3.21 7.88 1.09 11.66-1.2 1.88-1.13 4.26-1.43 6.41-2.11l-.19 1.09a24.55 24.55 0 0 0 5 .7c5.35-.35 10.69-1 16-1.41 1.83-.14 3.85-.4 5.51.18 2.22.79 4.16 3.24 6.26 3.3 1.82 0 3.7-2.25 5.62-3.56.11 2.23-.8 5.62 3.83 3.16zM598 237.45c-1.93-.34-3.72-2.28-5.63-3.54l-9.68-3.19c0-4.45-1.34-5.22-4.05-2.35-.72.77-2.19 1.53-2.75 1.06-2.8-2.35-5.52-1.8-8.67-1.55-7.85.63-15.32 1.93-20.89 10.15-2.3 3.41-6.15 5.4-6.34 11.07-.14 4.06-.31 8.11-.39 12.17-.06 2.65 0 5.31.07 8 .33 11.46-5.41 22.63-.09 34.77h5.07l-1.93 2.92c3.06.88 5.88 1.53 8.63 2.58a8 8 0 0 1 2.88 2.64c1.41 1.79 2.91 4.8 4.64 1.38s2.79-2.19 4.24-.2c2.1 2.88 4.15 4.05 6.17-.14.1-.21.51-.15.88-.24l1.06 3.21 6.5-3.42c3.56-1.85 6.84-3.46 8.28-9.49.62-2.57 1.7-6.82 1.64-8.05-.29-5.78 2.35-9.24 4-13.57 3-7.92 5.93-15.89 8.54-24.05a44.7 44.7 0 0 0 2.29-12.39c.05-3.39-.81-7.12-4.47-7.77zm-14-92.21c.62.85 3.2.3 4.85.38-.54 3.77 2.21 6.44 6.62 6.7 1.61.1 4.86-.44 4.53 3.24 0 .3 1.06 1 1.6 1 4.24-.26 8.63.09 12.08-3.36 1-1 2.58-1.3 3.92-1.93.36 1.18.63 2.1.78 2.58 4.71-1.09 9.4-1.57 13.57-3.3 3.73-1.55 6.89-4.48 10.7-7.06 6.39 1.7 5.58-7 10.11-8.51 6.26-15.3.76-24.9-14.55-29.7l2.47-1.53c-6.2-8.69-16.26-5.2-23.91-8.58-.24-.11-.91.78-1.75 1.53l3.33 1.58-3.72 6.52c-.44-2.29-.73-3.83-1.29-6.78-2.43 2.5-4.63 4-5.86 6.17-2.75 4.71-6.7 8.38-9.93 12.58-4 5.29-10.63 8.33-13 15-4.23.34-3 3.92-4 6.35-1.42 3.74 1.94 5.06 3.45 7.12zm17 207.99l-3 2.73 3.54 2.65c-2.57 5.37-1.49 10.71 2.57 14 .3 2.22.66 4.57 2 6.12s3.66 2.48 5.23 3.46l-2.26.54c-.09.32-.17.65-.26 1l9.14 4.88c.62-2.13 1-3.5 1.44-5 5.75 4.7 14.13 4.87 17.07 12.51l15-4.86.12-1.08-4-2c2.52-4.53 8.91 2.28 10.7-4.16 4.95 0 4.95 0 6.71-5.26 4.62 1.6 5.05 1.35 9.18-3.22.74-.81 2.82-1.42 3.64-1 3.18 1.76 10.29 1 12.65-1.51a8.81 8.81 0 0 1 2.88-1.53c1.65-.74 3.33-1.43 5-2.14l-.35-.84-2.33-.49c-.16-.37-.33-.74-.49-1.1l7.91-4.32-4-2.95a8.14 8.14 0 0 0 1.67 0c1.2-.19 1.11-1.33.77-5.87l-2.9-.49-1.31-.21c2-1.88 6.31-3.21.69-5.06-.5-.17-.43-2-.61-3.08l-3.58.45c-1.23-3.4-2.23-6.19-3.4-9.41l-3.49-.36c-.42-4.15-4.17-5.28-6.37-7.78-4.17-4.7-5.59 3.52-9 1.36-.17-1.82.1-4.31-3.22-2.86-.55.24-1.76.13-2-.23-2.82-4.64-7.62-4.22-12-5.09-6.16-8.49-15.47-4.15-23.2-5.47-1.23 1.08-2.23 2.4-3.55 3-2.55 1.14-5.33 1.76-7.91 2.83-1.06.44-2.61 1.42-2.67 2.23-.3 4.6-3.68 5.8-7.31 6.8l1.5 2.34c-3.63 1.68-7.74-.19-10.46 4.52-2.49 4.3-2.78 7.26 0 10.21l-3.57 4zm-32.3 119.12l-24.63-13.83a12.4 12.4 0 0 0-.47-2.63c-1-3.1-2.25-6.14-3.32-9.23-2-5.83-6.18-7.64-12-5.27-2.09.84-4.35 2.14-6.4 1.94-2.93-.28-8.25 1.74-9.65 4.44-2.52 4.83-4.72 10-8 14.23s-7.85 7.14-11.41 11.05c-2.32 2.55-2.4 6.77-5.91 8.62l1.2 1.94c-3.83 1.31-7.64 10.7-6.49 15.44 2 8.38 7 13.12 13.27 12.75 2.21 9.5 11.85 9.23 16 13.64a48 48 0 0 0 2.6 4.58c3.42 4.52 8.62 2.07 13 3 1.36.27 3.24-2.06 5.86-3.88 3.12.81 5.33-1.4 4.88-6.56 3.15-.79 6.73-.85 9.24-2.51 3.83-2.54 7.43-4.37 12.11-3.42.51.11 1.43-.81 1.84-1.45 2.63-4.12 5.63-8.06 6.13-13.21.06-.67.87-1.35 1.47-1.87 3.16-2.72 5-5.89 5-10.3 0-2.59-.52-5.68 2.61-7.61.71-.44.74-3.07.18-4.26-1.69-3.64-3.76-7.13-7.11-5.6zm-6.01-59.85c-1.25-.17-3.54.17-3.77.83-1.19 3.34-2.75 6.93-2.51 10.32.44 6.38-1.28 12.7 1.1 19.27 2 5.57 1.38 6.34 7.62 6.2-.63 2.85.46 3.94 3.42 4.82 2.25.66 3.62 3.88 5.74 5.48 2.83 2.13 6.49 3.3 8.91 5.75 3.25 3.29 6.06 6 11 3.52.63-.32 1.83.44 2.76.73 4.64 1.5 13.72-1.82 15.94-6l1.66 2.19L616 463c1.36 4.64 4.77 3.19 6.21 1.89 1.8-1.63 4-1.13 5.2-2 2.16-1.64 7.28-.43 6-5.51a10 10 0 0 0 8.78-9.75c.08-1.83-.15-3.78.39-5.47a36.05 36.05 0 0 0-1.47-26.22 49.54 49.54 0 0 0-2.73-5.63c-.77-1.29-1.71-2.87-3-3.41-3.83-1.64-8-2.55-11.76-4.28-6.21-2.84-12.35-2.1-18.65-.67-3.18.72-6.6 1.8-9.68 1.3-6.34-1-10.75 2.56-16 4.77s-10.41 5.34-16.6 4.48z"/></g></svg>