<svg width="1300" height="469" xmlns="http://www.w3.org/2000/svg"><path d="M-33.075 88.597c4.15 6.97 8.291 13.945 12.442 20.916-24.61 8.097-54.243 9.62-72.35 26.231-16.535 15.162-33.115 50.454-28.11 70.358 32.512 129.343 159.535 194.425 268.454 134.34 34.51-19.036 75.934-62.39 80.031-99.186 6.316-56.771-3.22-124.937-78.999-140.919-19.294-4.069-33.096-33.481-52.13-46.477-24.357-16.635-55.19-44.07-76.35-38-21.943 6.292-35.67 47.054-52.988 72.736m753.73 835.079c190.5-1.752 301.126-75.442 342.7-180.432 106.805-269.772-235.767-249.517-231.582-450.59.32-15.457-42.941-32.3-66.345-47.775-3.72-2.458-9.509-1.201-14.35-1.523-140.949-9.54-323.545 174.818-325.05 328.17-2.132 215.255 113.809 353.82 294.627 352.15m540.536-835.828c-69.603-21.306-107.786 34.625-142.057 94.198-42.813 74.421-22.934 122.465 54.572 146.762 51.895 16.278 101.882 50.415 153.727 53.047 44.866 2.272 94.51-22.346 134.993-48.166 14.387-9.18 8.224-56.868 11.07-87.017 2.742-28.975 10.555-59.04 6.222-86.789-7.437-47.61-9.653-111.62-37.9-135.907-32.75-28.158-91.466-27.196-138.36-24.983-13.246.621-24.574 49.828-42.267 88.855" fill-rule="evenodd" opacity=".04"/></svg>