<svg width="1582" height="112" xmlns="http://www.w3.org/2000/svg"><path d="M1.205 90.536c2.272.297 3.306 1.765 4.614 3.618C7.34 96.312 9.234 99 13.584 99c.577 0 1.199-.046 1.898-.148 5.217-.86 9.669-4.613 12.536-10.578 4.14-8.608 3.952-19.668-.458-27.517a1.392 1.392 0 0 0-1.126-.704c-15.2-.909-19.082 9.96-22.545 19.51-1.11 3.066-2.258 6.231-3.723 8.941a1.397 1.397 0 0 0-.016 1.292c.21.407.602.683 1.055.74M1108.37 70.064c-.705-.227-1.462.167-1.707.87-1.64 4.708-4.817 7.863-8.18 11.205-3.163 3.136-6.428 6.374-8.376 11.011-.15.364-.142.776.022 1.133 3.317 7.208 8.154 8.717 11.627 8.717h.002c7.973 0 16.752-8.414 18.072-17.31 1.088-7.355-3.09-13.05-11.46-15.626m315-41c-.705-.227-1.462.167-1.707.87-1.64 4.708-4.817 7.863-8.18 11.205-3.163 3.136-6.428 6.374-8.376 11.011-.15.364-.142.776.022 1.133 3.317 7.208 8.154 8.717 11.627 8.717h.002c7.973 0 16.752-8.414 18.072-17.31 1.088-7.355-3.09-13.05-11.46-15.626m27.26 41c.705-.227 1.462.167 1.707.87 1.64 4.708 4.817 7.863 8.18 11.205 3.163 3.136 6.428 6.374 8.376 11.011.15.364.142.776-.022 1.133-3.317 7.208-8.154 8.717-11.627 8.717h-.002c-7.973 0-16.752-8.414-18.072-17.31-1.088-7.355 3.09-13.05 11.46-15.626m-1322-49c.705-.227 1.462.167 1.707.87 1.64 4.708 4.817 7.863 8.18 11.205 3.163 3.136 6.428 6.374 8.376 11.011.15.364.142.776-.022 1.133-3.317 7.208-8.154 8.717-11.627 8.717h-.002c-7.973 0-16.752-8.414-18.072-17.31-1.088-7.355 3.09-13.05 11.46-15.626m819.552 80.878c.041.402.264.765.603.992 3.43 2.268 7.631 3.742 11.697 5.162 2.675.937 5.441 1.909 7.887 3.076a1.407 1.407 0 0 0 1.486-.165c.418-.34.6-.885.462-1.396-1.806-6.793.078-9.615 2.26-12.883 1.83-2.742 3.903-5.851 3.327-11.342a1.367 1.367 0 0 0-.283-.697C972.214 80.377 967.873 78 963.39 78c-3.695 0-7.237 1.629-9.973 4.584-4.178 4.51-6.037 11.384-5.236 19.358m294.001-29c.041.402.264.765.603.992 3.43 2.268 7.631 3.742 11.697 5.162 2.675.937 5.441 1.909 7.887 3.076a1.407 1.407 0 0 0 1.486-.165c.418-.34.6-.885.462-1.396-1.806-6.793.078-9.615 2.26-12.883 1.83-2.742 3.903-5.851 3.327-11.342a1.367 1.367 0 0 0-.283-.697c-3.407-4.312-7.748-6.689-12.23-6.689-3.695 0-7.237 1.629-9.973 4.584-4.178 4.51-6.037 11.384-5.236 19.358m-1201-37c.041.402.264.765.603.992 3.43 2.268 7.631 3.742 11.697 5.162 2.675.937 5.441 1.909 7.887 3.076a1.407 1.407 0 0 0 1.486-.165c.418-.34.6-.885.462-1.396-1.806-6.793.078-9.615 2.26-12.883 1.83-2.742 3.903-5.851 3.327-11.342a1.367 1.367 0 0 0-.283-.697C65.214 14.377 60.873 12 56.39 12c-3.695 0-7.237 1.629-9.973 4.584-4.178 4.51-6.037 11.384-5.236 19.358m794.062 43.916c1.738-9.857-3.693-14.44-9.353-15.44-4.476-.792-9.78.378-14.183 3.13-4.918 3.068-8.139 7.665-9.07 12.943a1.388 1.388 0 0 0 1.116 1.613c.03.005.059-.008.087-.005a18.987 18.987 0 0 0 .282 5.51c13.565 4.711 18.434-3.183 28.556-3.463a31.02 31.02 0 0 0 .91-3.177c.021.007.038.02.057.023a1.386 1.386 0 0 0 1.598-1.134m-195-29c1.738-9.857-3.693-14.44-9.353-15.44-4.476-.792-9.78.378-14.183 3.13-4.918 3.068-8.139 7.665-9.07 12.943a1.388 1.388 0 0 0 1.116 1.613c.03.005.059-.008.087-.005a18.987 18.987 0 0 0 .282 5.51c13.565 4.711 18.434-3.183 28.556-3.463a31.02 31.02 0 0 0 .91-3.177c.021.007.038.02.057.023a1.386 1.386 0 0 0 1.598-1.134m-537 28c1.738-9.857-3.693-14.44-9.353-15.44-4.476-.792-9.78.378-14.183 3.13-4.918 3.068-8.139 7.665-9.07 12.943a1.388 1.388 0 0 0 1.116 1.613c.03.005.059-.008.087-.005a18.987 18.987 0 0 0 .282 5.51c13.565 4.711 18.434-3.183 28.556-3.463a31.02 31.02 0 0 0 .91-3.177c.021.007.038.02.057.023a1.386 1.386 0 0 0 1.598-1.134m1297 22c1.738-9.857-3.693-14.44-9.353-15.44-4.476-.792-9.78.378-14.183 3.13-4.918 3.068-8.139 7.665-9.07 12.943a1.388 1.388 0 0 0 1.116 1.613c.03.005.059-.008.087-.005a18.986 18.986 0 0 0 .282 5.51c13.565 4.711 18.434-3.183 28.556-3.463a31.02 31.02 0 0 0 .91-3.177c.021.007.038.02.057.023a1.386 1.386 0 0 0 1.598-1.134m-200-7c1.738-9.857-3.693-14.44-9.353-15.44-4.476-.792-9.78.378-14.183 3.13-4.918 3.068-8.139 7.665-9.07 12.943a1.388 1.388 0 0 0 1.116 1.613c.03.005.059-.008.087-.005a18.986 18.986 0 0 0 .282 5.51c13.565 4.711 18.434-3.183 28.556-3.463a31.02 31.02 0 0 0 .91-3.177c.021.007.038.02.057.023a1.386 1.386 0 0 0 1.598-1.134M555.224 76.303c-2.193-1.259-4.264-2.45-6.005-3.967a1.338 1.338 0 0 0-1.774 0c-11.615 10.07-13.617 21.406-5.635 31.917.232.302.576.497.952.53 1.494.144 2.928.217 4.275.217 12.297 0 18.854-6.208 18.963-17.958a1.273 1.273 0 0 0-.088-.491c-1.955-5.23-6.395-7.783-10.688-10.248m790-9c-2.193-1.259-4.264-2.45-6.005-3.967a1.338 1.338 0 0 0-1.774 0c-11.615 10.07-13.617 21.406-5.635 31.917.232.302.576.497.952.53 1.494.144 2.928.217 4.275.217 12.297 0 18.854-6.208 18.963-17.958a1.273 1.273 0 0 0-.088-.491c-1.955-5.23-6.395-7.783-10.688-10.248m159.998-36.919c.733-2.42 1.428-4.705 2.515-6.743a1.338 1.338 0 0 0-.4-1.728c-12.423-9.052-23.92-8.453-32.366 1.69a1.36 1.36 0 0 0-.303 1.046 45.16 45.16 0 0 0 .75 4.214c2.767 11.982 10.291 16.975 21.764 14.437.166-.035.32-.1.46-.196 4.655-3.081 6.144-7.982 7.58-12.72M181.224 41.303c-2.193-1.259-4.264-2.45-6.005-3.967a1.338 1.338 0 0 0-1.774 0c-11.615 10.07-13.617 21.406-5.635 31.917.232.302.576.497.952.53 1.494.144 2.928.217 4.275.217 12.297 0 18.854-6.208 18.963-17.958a1.273 1.273 0 0 0-.088-.491c-1.955-5.23-6.395-7.783-10.688-10.248m-25.82 44.622c-.358-2.503-.694-4.868-.571-7.174a1.338 1.338 0 0 0-1.092-1.398c-15.085-2.953-25.252 2.449-28.62 15.21a1.36 1.36 0 0 0 .168 1.077 45.056 45.056 0 0 0 2.46 3.501c7.572 9.69 16.501 11.036 25.827 3.888.135-.102.247-.227.333-.373 2.917-4.76 2.195-9.83 1.495-14.731m121.421-19.552a1.06 1.06 0 0 0-.743-.337c-2.638-.096-5.436.02-8.21.132-2.01.08-4.01.163-5.933.163-2.028 0-3.713-.096-5.154-.287a1.073 1.073 0 0 0-.875.285c-4.86 4.6-6.35 14.178-3.394 21.8 2.746 7.073 8.72 10.447 16.026 8.847.626 10.166 8.48 13.074 15.859 14.993.088.021.178.031.267.031.3 0 .592-.127.797-.356 3.168-3.538 9.948-12.87 4.46-23.149a1.07 1.07 0 0 0-.61-.517c-1.422-.47-3.795-.292-6.082-.026-1.188.138-2.413.281-3.446.281-2.585 0-2.633-.882-2.693-1.657-.88-3.768.036-6.743.924-9.622 1.114-3.602 2.165-7.01-1.193-10.58m762-31.001a1.06 1.06 0 0 0-.743-.337c-2.638-.096-5.436.02-8.21.132-2.01.08-4.01.163-5.933.163-2.028 0-3.713-.096-5.154-.287a1.073 1.073 0 0 0-.875.285c-4.86 4.6-6.35 14.178-3.394 21.8 2.746 7.073 8.72 10.447 16.026 8.847.626 10.166 8.48 13.074 15.859 14.993.088.021.178.031.267.031.3 0 .592-.127.797-.356 3.168-3.538 9.948-12.87 4.46-23.149a1.07 1.07 0 0 0-.61-.517c-1.422-.47-3.795-.292-6.082-.026-1.188.138-2.413.281-3.446.281-2.585 0-2.633-.882-2.693-1.657-.88-3.768.036-6.743.924-9.622 1.114-3.602 2.165-7.01-1.193-10.58m-429.5 36.018a1.06 1.06 0 0 0-.71.403c-1.628 2.078-3.18 4.41-4.719 6.719-1.117 1.674-2.226 3.342-3.355 4.896-1.193 1.641-2.26 2.948-3.262 4.002a1.07 1.07 0 0 0-.284.875c.865 6.635 7.738 13.47 15.641 15.56 7.337 1.935 13.579-.914 16.578-7.765 8.593 5.469 15.561.824 21.451-4.018a1.07 1.07 0 0 0 .362-1.052c-1-4.643-4.565-15.613-16.105-17.215a1.07 1.07 0 0 0-.778.19c-1.215.874-2.466 2.898-3.596 4.905-.586 1.042-1.19 2.118-1.798 2.953-1.519 2.091-2.26 1.611-2.923 1.205-3.566-1.504-5.434-3.993-7.24-6.403-2.26-3.02-4.4-5.872-9.262-5.255M324.246 40.076c-2.056 2.392-2.69 5.795-1.945 10.408.048.286.209.543.451.703 2.449 1.657 5.661 2.481 8.765 3.275 3.902 1 7.605 1.95 9.68 4.36-2.68 4.552-1.913 8.223-.756 10.537 2.897 5.799 10.76 8.956 16.843 9.433a1.08 1.08 0 0 0 .61-.133c8.69-4.893 17.101-19.028 11.054-30.926a1.07 1.07 0 0 0-.75-.562 17.494 17.494 0 0 0-3.223-.322c-4.21 0-6.627 1.922-8.76 3.621-2.18 1.735-4.221 3.363-8.17 3.137 1.109-5.61-1.335-7.901-3.508-9.938-1.665-1.565-3.114-2.92-3.117-5.79 2.558.993 5.202 1.55 7.722 1.55 4.642 0 8.516-1.848 11.197-5.348.171-.222.247-.5.21-.777-.982-7.393-12.043-15.51-21.133-15.51-5.716 0-9.526 3.235-10.73 9.109a1.06 1.06 0 0 0 .127.747c2.12 3.557 5.569 6.648 9.47 8.772-6.97-.46-11.507.71-14.037 3.654m-99.319 51.375h.03a.877.877 0 0 0 .81-.543c.256-.618.521-1.226.787-1.835 1.703-3.914 3.461-7.961 2.788-14.401a.863.863 0 0 0-.28-.556C226.794 72.047 224.12 71 221.107 71c-6.102 0-12.407 4.213-17.766 8.337a.877.877 0 0 0-.29.993c3.398 9.429 14.111 10.862 21.875 11.121M1166 61.936c0 .444.215.865.58 1.125 2.709 1.95 5.762 2.939 9.077 2.939 9.005 0 17.45-7.244 21.022-11.523a1.39 1.39 0 0 0 .31-1.055c-.907-7.258-4.798-11.422-10.678-11.422-8.668 0-20.295 9.86-20.311 19.936M483.565 95.309c1.279 0 2.346.343 3.325 1.075.373 3.276-.926 4.741-2.42 6.43-1.472 1.664-3.141 3.548-2.902 7.212a.879.879 0 0 0 .81.82 36.69 36.69 0 0 0 2.699.102c12.886 0 18.479-7.526 22.712-14.578a.878.878 0 0 0-.245-1.168c-1.295-.92-2.613-1.591-3.772-2.181-3.728-1.899-5.6-2.851-2.954-9.054a.876.876 0 0 0-.375-1.107c-5.504-3.134-11.965-4.86-18.19-4.86-6.15 0-11.73 1.7-16.136 4.913a.881.881 0 0 0-.347.863c.637 3.561-.054 5.75-.781 8.069-.384 1.223-.781 2.485-.981 3.954a.885.885 0 0 0 .33.813c1.73 1.34 3.616 1.992 5.769 1.992 2.522 0 4.989-.896 7.375-1.764 2.166-.786 4.21-1.531 6.083-1.531M849.477 84c-9.13 0-19.53 5.92-20.47 14.738-.046.432.144.855.494 1.11 1.992 1.444 3.32 3.628 4.723 5.935.721 1.184 1.466 2.411 2.32 3.543.202.268.508.444.845.479 1.266.13 2.495.195 3.654.195 11.831 0 18.235-6.786 19.575-20.751a1.229 1.229 0 0 0-.275-.896C857.986 85.547 854.127 84 849.477 84M472.488 72c10.913 0 13.527-8.598 15.832-16.18 1.338-4.404 2.605-8.567 5.242-11.208.5-.504.582-1.29.194-1.886-4.708-7.211-9.69-8.726-13.048-8.726-6.095 0-11.955 4.933-14.927 12.567-2.825 7.257-3.023 17.637 4.898 25.019m187.623-2.357a.879.879 0 0 0-.713.54c-2.119 5.16-2.119 9.562 0 14.72.14.34.48.585.841.543 3.558-.13 6.5.783 9.08 1.578 2.035.627 3.957 1.215 5.875 1.217 2.455 0 4.587-.967 6.71-3.042a.887.887 0 0 0 .235-.851c-2.95-11.425-9.908-16.06-22.028-14.705m897.08-40.619l-.215-.16c-2.693-2.013-6.759-5.055-10.95-5.055-1.976 0-3.781.676-5.364 2.01a.86.86 0 0 0-.306.555c-1.021 7.585 3.018 10.434 6.58 12.946 1.559 1.1 3.033 2.14 4.144 3.528a.882.882 0 0 0 1.276.103c3.941-3.578 7.54-3.667 12.095-3.78 2.998-.073 6.398-.159 10.391-1.297a.9.9 0 0 0 .432-.282c6.137-7.34 10.136-19.968 6.2-28.384-1.745-3.735-5.856-8.186-15.659-8.186a.874.874 0 0 0-.867.753c-1.111 7.79 1.267 12.151 3.567 16.37.53.97 1.075 1.971 1.567 2.998-2.933 4.18-8.129 6.275-12.891 7.88M1551 72.75a1.41 1.41 0 0 0 .231.808c2.941 4.45 10.036 6.442 15.767 6.442 5.37 0 9.77-1.593 12.388-4.482 2.027-2.235 2.882-5.091 2.541-8.486a1.548 1.548 0 0 0-.083-.35c-2.035-5.434-7.152-8.682-13.69-8.682-8.246 0-16.915 5.516-17.153 14.75M875.408 53.107a1.229 1.229 0 0 0-.764-.078c-5.655 1.162-10.137 4.524-12.3 9.223-2.153 4.671-1.707 10.15 1.25 15.43.065.12.153.228.256.322 3.7 3.349 10.002 5.348 16.861 5.348h.001c3.93 0 7.645-.648 10.867-1.88a20.563 20.563 0 0 0-.113 3.246 1.27 1.27 0 0 0 1.037 1.192c2.2.413 3.103 2.216 4.15 4.304l.044.085c.213.431.657.701 1.138.701h.033c9-.218 13.95-1.686 18.316-2.977 4.814-1.426 8.896-2.623 17.248-2.092.3.013.617-.075.864-.267 9.07-7.035 8.21-14.492 6.884-18.31-2.481-7.172-10.287-12.79-17.77-12.79-7.88 0-13.077 6.088-14.027 16.353-.949.13-2.02.208-3.135.285-4.144.299-9.73.698-12.715 4.848-1.977-10.885-8.059-18.596-18.125-22.943M752.643 83.519c-1.04 2.203-1.332 5.979 3.182 11.462a.88.88 0 0 0 .896.292c2.332-.598 4.991-.95 7.563-1.292 6.23-.828 12.67-1.684 15.772-6.078a.88.88 0 0 0 .13-.738C778.458 80.833 771.1 78 764.572 78c-5.753 0-10.325 2.115-11.93 5.519m-423.999 13c-1.04 2.203-1.332 5.979 3.182 11.462a.88.88 0 0 0 .896.292c2.332-.598 4.991-.95 7.563-1.292 6.23-.828 12.67-1.684 15.772-6.078a.88.88 0 0 0 .13-.738C354.458 93.833 347.1 91 340.572 91c-5.753 0-10.325 2.115-11.93 5.519M1519.312 74c-14.462 0-31.69 8.037-34.281 20.002-.068.315-.022.64.121.923 4.94 9.623 14.125 14.507 27.293 14.507.423 0 .847-.006 1.277-.016.289-.006.563-.102.791-.275 3.112-2.36 4.412-6.296 5.672-10.1 1.174-3.55 2.284-6.908 4.7-8.756l1.104.283c2.294.602 4.466 1.17 6.462 1.17 4.296 0 6.65-2.717 7.19-8.308a1.404 1.404 0 0 0-.25-.939c-3.935-5.475-11.067-8.491-20.079-8.491M735.81 67.702c12.998-6.34 24.959-21.116 22.043-33.005a1.392 1.392 0 0 0-.514-.777c-8.657-6.484-19.054-6.847-30.89-1.074-.38.185-.758.377-1.14.574a1.349 1.349 0 0 0-.591.594c-1.762 3.484-1.205 7.592-.67 11.565.5 3.705.976 7.209-.387 9.93l-1.115.229c-2.327.464-4.527.905-6.321 1.78-3.862 1.884-4.786 5.358-2.822 10.62.117.314.344.57.637.734 5.937 3.196 13.67 2.78 21.77-1.17M415.271 64c-7.03 0-15.434 4.919-20.994 8.173a1.152 1.152 0 0 0-.555.792c-.525 3.01.61 4.618 1.523 5.908.972 1.373 1.74 2.46.857 5.408-.144.477.048.992.473 1.268 1.562 1.022 3.066 1.521 4.605 1.521 1.23 0 2.25-.31 3.15-.586.647-.196 1.205-.369 1.676-.369.388 0 .859.11 1.498.802-3.814 4.826-10.667 6.705-17.545 8.007a1.157 1.157 0 0 0-.952 1.095c-.112 4.608 1.073 8.187 3.52 10.632 2.195 2.188 5.336 3.346 9.076 3.349 7.872 0 16.935-5.166 20.63-11.76 1.812-3.23 3.204-8.216-.246-13.82.373-1.074 1.149-1.808 2.033-2.64 1.765-1.665 3.956-3.733 2.51-8.978-1.937-5.84-5.725-8.802-11.259-8.802" fill="#231F20" fill-rule="evenodd" opacity=".04"/></svg>